<svg xmlns="http://www.w3.org/2000/svg" viewBox="0 0 2400 600" preserveAspectRatio="xMidYMid slice">
<defs>
<linearGradient id="sky" x1="0" y1="0" x2="0" y2="1">
  <stop offset="0%"   stop-color="#0a0805" stop-opacity="1"/>
  <stop offset="60%"  stop-color="#1a1107" stop-opacity="1"/>
  <stop offset="100%" stop-color="#2a1a0e" stop-opacity="1"/>
</linearGradient>
<radialGradient id="neb1" cx="20%" cy="60%" r="40%">
  <stop offset="0%"  stop-color="#d4a373" stop-opacity="0.40"/>
  <stop offset="100%" stop-color="#d4a373" stop-opacity="0"/>
</radialGradient>
<radialGradient id="neb2" cx="70%" cy="35%" r="35%">
  <stop offset="0%"  stop-color="#b08968" stop-opacity="0.30"/>
  <stop offset="100%" stop-color="#b08968" stop-opacity="0"/>
</radialGradient>
<radialGradient id="neb3" cx="90%" cy="80%" r="25%">
  <stop offset="0%"  stop-color="#7a8da3" stop-opacity="0.20"/>
  <stop offset="100%" stop-color="#7a8da3" stop-opacity="0"/>
</radialGradient>
<radialGradient id="gal" cx="50%" cy="50%" r="50%">
  <stop offset="0%"  stop-color="#f5e6c8" stop-opacity="0.55"/>
  <stop offset="40%" stop-color="#d4a373" stop-opacity="0.18"/>
  <stop offset="100%" stop-color="#d4a373" stop-opacity="0"/>
</radialGradient>
</defs>
<rect width="2400" height="600" fill="url(#sky)"/>
<rect width="2400" height="600" fill="url(#neb1)"/>
<rect width="2400" height="600" fill="url(#neb2)"/>
<rect width="2400" height="600" fill="url(#neb3)"/>
<g transform="translate(1700 350) rotate(-22) scale(1.1 0.45)">
  <ellipse cx="0" cy="0" rx="220" ry="220" fill="url(#gal)"/>
</g>
<circle cx="777.2" cy="90.5" r="0.7" fill="#fffaf0" opacity="0.34"/>
<circle cx="877.7" cy="34.8" r="0.7" fill="#fffaf0" opacity="0.32"/>
<circle cx="167.7" cy="54.4" r="0.7" fill="#fffaf0" opacity="0.8"/>
<circle cx="535.8" cy="376.5" r="1.1" fill="#fffaf0" opacity="0.65"/>
<circle cx="2343.0" cy="27.9" r="0.9" fill="#fffaf0" opacity="0.47"/>
<circle cx="282.7" cy="185.1" r="0.9" fill="#f5e6c8" opacity="0.41"/>
<circle cx="1533.4" cy="223.4" r="0.7" fill="#fffaf0" opacity="0.34"/>
<circle cx="494.3" cy="408.2" r="0.7" fill="#f5e6c8" opacity="0.49"/>
<circle cx="1087.6" cy="179.9" r="0.9" fill="#fffaf0" opacity="0.72"/>
<circle cx="1378.6" cy="315.1" r="0.9" fill="#fffaf0" opacity="0.74"/>
<circle cx="2352.4" cy="70.8" r="0.7" fill="#fffaf0" opacity="0.75"/>
<circle cx="1173.5" cy="23.5" r="0.7" fill="#f5e6c8" opacity="0.76"/>
<circle cx="2101.1" cy="188.2" r="0.7" fill="#f5e6c8" opacity="0.66"/>
<circle cx="1094.9" cy="504.0" r="1.1" fill="#f5e6c8" opacity="0.58"/>
<circle cx="145.6" cy="420.9" r="0.7" fill="#d4a373" opacity="0.9"/>
<circle cx="683.0" cy="231.5" r="0.7" fill="#fffaf0" opacity="0.31"/>
<circle cx="403.3" cy="70.3" r="0.5" fill="#fffaf0" opacity="0.76"/>
<circle cx="594.3" cy="234.6" r="0.9" fill="#fffaf0" opacity="0.35"/>
<circle cx="1318.7" cy="530.0" r="0.9" fill="#fffaf0" opacity="0.82"/>
<circle cx="996.7" cy="215.3" r="1.1" fill="#fffaf0" opacity="0.87"/>
<circle cx="422.9" cy="139.2" r="0.5" fill="#f5e6c8" opacity="0.59"/>
<circle cx="630.6" cy="2.5" r="0.7" fill="#f5e6c8" opacity="0.52"/>
<circle cx="2287.4" cy="414.3" r="0.7" fill="#f5e6c8" opacity="0.67"/>
<circle cx="129.6" cy="539.7" r="0.9" fill="#f5e6c8" opacity="0.82"/>
<circle cx="941.7" cy="239.4" r="0.5" fill="#fffaf0" opacity="0.68"/>
<circle cx="161.6" cy="125.3" r="0.5" fill="#fffaf0" opacity="0.5"/>
<circle cx="0.6" cy="90.8" r="0.5" fill="#fffaf0" opacity="0.52"/>
<circle cx="2098.4" cy="368.4" r="0.5" fill="#fffaf0" opacity="0.45"/>
<circle cx="874.0" cy="73.7" r="0.9" fill="#fffaf0" opacity="0.9"/>
<circle cx="1161.2" cy="51.5" r="0.5" fill="#fffaf0" opacity="0.51"/>
<circle cx="1989.3" cy="96.9" r="0.5" fill="#fffaf0" opacity="0.87"/>
<circle cx="351.8" cy="325.9" r="0.5" fill="#a3b8d1" opacity="0.62"/>
<circle cx="2072.0" cy="417.7" r="0.5" fill="#fffaf0" opacity="0.52"/>
<circle cx="1852.7" cy="319.6" r="0.9" fill="#fffaf0" opacity="0.5"/>
<circle cx="1947.6" cy="591.0" r="0.9" fill="#d4a373" opacity="0.78"/>
<circle cx="1775.7" cy="136.0" r="0.7" fill="#fffaf0" opacity="0.51"/>
<circle cx="67.0" cy="167.7" r="0.5" fill="#a3b8d1" opacity="0.72"/>
<circle cx="1073.3" cy="562.2" r="1.5" fill="#fffaf0" opacity="0.87"/>
<circle cx="529.1" cy="136.1" r="0.5" fill="#f5e6c8" opacity="0.42"/>
<circle cx="2160.7" cy="504.3" r="0.7" fill="#f5e6c8" opacity="0.69"/>
<circle cx="203.5" cy="396.4" r="1.1" fill="#f5e6c8" opacity="0.77"/>
<circle cx="1147.3" cy="107.1" r="0.9" fill="#d4a373" opacity="0.5"/>
<circle cx="2332.0" cy="237.5" r="0.7" fill="#f5e6c8" opacity="0.87"/>
<circle cx="408.0" cy="76.2" r="0.5" fill="#d4a373" opacity="0.84"/>
<circle cx="350.8" cy="495.9" r="1.5" fill="#fffaf0" opacity="0.69"/>
<circle cx="1316.8" cy="78.6" r="0.5" fill="#f5e6c8" opacity="0.88"/>
<circle cx="1263.8" cy="560.2" r="0.7" fill="#d4a373" opacity="0.82"/>
<circle cx="506.5" cy="151.1" r="0.5" fill="#f5e6c8" opacity="0.44"/>
<circle cx="622.5" cy="251.4" r="0.5" fill="#fffaf0" opacity="0.85"/>
<circle cx="1099.6" cy="350.0" r="1.1" fill="#d4a373" opacity="0.55"/>
<circle cx="1204.0" cy="319.1" r="0.7" fill="#fffaf0" opacity="0.31"/>
<circle cx="439.5" cy="2.4" r="0.9" fill="#fffaf0" opacity="0.4"/>
<circle cx="1740.5" cy="333.9" r="0.5" fill="#f5e6c8" opacity="0.61"/>
<circle cx="1882.3" cy="63.7" r="0.7" fill="#fffaf0" opacity="0.45"/>
<circle cx="1853.4" cy="304.6" r="0.7" fill="#d4a373" opacity="0.76"/>
<circle cx="1063.8" cy="367.5" r="0.7" fill="#f5e6c8" opacity="0.61"/>
<circle cx="1085.6" cy="320.0" r="0.7" fill="#f5e6c8" opacity="0.86"/>
<circle cx="2103.7" cy="565.3" r="0.5" fill="#a3b8d1" opacity="0.64"/>
<circle cx="2016.0" cy="82.3" r="0.5" fill="#fffaf0" opacity="0.57"/>
<circle cx="577.5" cy="43.9" r="0.7" fill="#d4a373" opacity="0.77"/>
<circle cx="370.7" cy="429.7" r="0.7" fill="#d4a373" opacity="0.39"/>
<circle cx="2322.1" cy="131.8" r="1.1" fill="#fffaf0" opacity="0.54"/>
<circle cx="2375.7" cy="499.5" r="0.5" fill="#fffaf0" opacity="0.56"/>
<circle cx="813.9" cy="117.4" r="0.5" fill="#fffaf0" opacity="0.73"/>
<circle cx="1329.7" cy="264.3" r="0.5" fill="#f5e6c8" opacity="0.5"/>
<circle cx="1229.4" cy="38.6" r="1.5" fill="#a3b8d1" opacity="0.77"/>
<circle cx="251.5" cy="159.3" r="0.5" fill="#fffaf0" opacity="0.77"/>
<circle cx="310.9" cy="253.4" r="1.1" fill="#fffaf0" opacity="0.79"/>
<circle cx="358.5" cy="551.5" r="0.7" fill="#fffaf0" opacity="0.72"/>
<circle cx="138.1" cy="412.9" r="0.7" fill="#a3b8d1" opacity="0.34"/>
<circle cx="1522.7" cy="481.0" r="0.5" fill="#fffaf0" opacity="0.81"/>
<circle cx="2070.7" cy="272.3" r="0.5" fill="#a3b8d1" opacity="0.63"/>
<circle cx="642.9" cy="77.5" r="0.7" fill="#fffaf0" opacity="0.44"/>
<circle cx="387.5" cy="30.2" r="0.5" fill="#fffaf0" opacity="0.49"/>
<circle cx="1822.8" cy="174.0" r="0.7" fill="#fffaf0" opacity="0.41"/>
<circle cx="43.6" cy="150.3" r="0.5" fill="#f5e6c8" opacity="0.74"/>
<circle cx="454.7" cy="284.9" r="1.1" fill="#d4a373" opacity="0.36"/>
<circle cx="1037.2" cy="297.0" r="0.9" fill="#fffaf0" opacity="0.54"/>
<circle cx="1650.6" cy="589.5" r="0.5" fill="#f5e6c8" opacity="0.8"/>
<circle cx="1526.3" cy="242.8" r="0.5" fill="#fffaf0" opacity="0.33"/>
<circle cx="169.7" cy="444.5" r="0.5" fill="#fffaf0" opacity="0.4"/>
<circle cx="2019.0" cy="522.3" r="0.7" fill="#fffaf0" opacity="0.47"/>
<circle cx="703.3" cy="275.7" r="0.5" fill="#fffaf0" opacity="0.57"/>
<circle cx="2308.3" cy="583.6" r="0.7" fill="#a3b8d1" opacity="0.45"/>
<circle cx="742.9" cy="214.0" r="0.5" fill="#fffaf0" opacity="0.53"/>
<circle cx="1206.6" cy="120.6" r="0.7" fill="#fffaf0" opacity="0.3"/>
<circle cx="215.4" cy="239.7" r="0.5" fill="#fffaf0" opacity="0.31"/>
<circle cx="558.7" cy="351.3" r="0.7" fill="#f5e6c8" opacity="0.75"/>
<circle cx="1718.4" cy="527.5" r="0.5" fill="#a3b8d1" opacity="0.5"/>
<circle cx="358.7" cy="434.5" r="0.7" fill="#d4a373" opacity="0.33"/>
<circle cx="2140.7" cy="376.4" r="0.9" fill="#fffaf0" opacity="0.79"/>
<circle cx="1257.0" cy="302.6" r="0.9" fill="#d4a373" opacity="0.78"/>
<circle cx="1401.7" cy="535.7" r="0.7" fill="#fffaf0" opacity="0.72"/>
<circle cx="74.8" cy="79.9" r="0.5" fill="#d4a373" opacity="0.36"/>
<circle cx="1340.5" cy="376.7" r="0.7" fill="#fffaf0" opacity="0.71"/>
<circle cx="8.0" cy="478.6" r="0.9" fill="#fffaf0" opacity="0.6"/>
<circle cx="1582.3" cy="39.6" r="0.9" fill="#fffaf0" opacity="0.45"/>
<circle cx="637.3" cy="437.6" r="0.5" fill="#a3b8d1" opacity="0.74"/>
<circle cx="1185.5" cy="229.5" r="0.7" fill="#f5e6c8" opacity="0.71"/>
<circle cx="1480.7" cy="385.7" r="0.5" fill="#fffaf0" opacity="0.39"/>
<circle cx="1783.7" cy="182.7" r="0.7" fill="#fffaf0" opacity="0.31"/>
<circle cx="645.1" cy="403.2" r="0.7" fill="#fffaf0" opacity="0.71"/>
<circle cx="1239.7" cy="278.8" r="0.7" fill="#d4a373" opacity="0.37"/>
<circle cx="478.2" cy="586.9" r="1.1" fill="#fffaf0" opacity="0.31"/>
<circle cx="1967.8" cy="580.9" r="0.7" fill="#fffaf0" opacity="0.46"/>
<circle cx="2269.4" cy="126.4" r="0.7" fill="#fffaf0" opacity="0.39"/>
<circle cx="2286.6" cy="79.6" r="0.9" fill="#d4a373" opacity="0.61"/>
<circle cx="1688.0" cy="138.8" r="1.1" fill="#fffaf0" opacity="0.59"/>
<circle cx="8.6" cy="295.0" r="0.7" fill="#fffaf0" opacity="0.48"/>
<circle cx="825.5" cy="189.6" r="0.9" fill="#f5e6c8" opacity="0.3"/>
<circle cx="2013.9" cy="72.0" r="1.1" fill="#d4a373" opacity="0.73"/>
<circle cx="695.6" cy="223.3" r="0.5" fill="#f5e6c8" opacity="0.9"/>
<circle cx="865.7" cy="256.8" r="0.5" fill="#fffaf0" opacity="0.33"/>
<circle cx="2003.2" cy="171.4" r="1.1" fill="#fffaf0" opacity="0.45"/>
<circle cx="1226.3" cy="113.9" r="0.5" fill="#d4a373" opacity="0.87"/>
<circle cx="1948.7" cy="378.5" r="1.1" fill="#fffaf0" opacity="0.86"/>
<circle cx="1727.0" cy="29.7" r="0.9" fill="#f5e6c8" opacity="0.57"/>
<circle cx="1546.8" cy="171.7" r="0.5" fill="#fffaf0" opacity="0.86"/>
<circle cx="1133.2" cy="206.2" r="0.5" fill="#a3b8d1" opacity="0.74"/>
<circle cx="624.4" cy="393.6" r="0.5" fill="#fffaf0" opacity="0.63"/>
<circle cx="401.6" cy="97.0" r="0.5" fill="#fffaf0" opacity="0.84"/>
<circle cx="528.1" cy="543.8" r="1.5" fill="#fffaf0" opacity="0.57"/>
<circle cx="461.8" cy="54.4" r="0.5" fill="#fffaf0" opacity="0.35"/>
<circle cx="620.1" cy="341.8" r="1.1" fill="#fffaf0" opacity="0.75"/>
<circle cx="993.3" cy="314.5" r="0.5" fill="#fffaf0" opacity="0.5"/>
<circle cx="666.0" cy="580.6" r="0.5" fill="#f5e6c8" opacity="0.6"/>
<circle cx="2070.9" cy="129.6" r="0.5" fill="#fffaf0" opacity="0.45"/>
<circle cx="1070.1" cy="572.4" r="0.9" fill="#fffaf0" opacity="0.82"/>
<circle cx="77.4" cy="425.7" r="1.1" fill="#f5e6c8" opacity="0.58"/>
<circle cx="0.4" cy="234.9" r="1.1" fill="#d4a373" opacity="0.8"/>
<circle cx="2333.4" cy="149.1" r="0.5" fill="#fffaf0" opacity="0.39"/>
<circle cx="1637.0" cy="564.9" r="0.9" fill="#f5e6c8" opacity="0.69"/>
<circle cx="1097.6" cy="330.9" r="0.5" fill="#fffaf0" opacity="0.77"/>
<circle cx="2207.8" cy="387.3" r="0.5" fill="#fffaf0" opacity="0.38"/>
<circle cx="1527.1" cy="419.1" r="0.5" fill="#fffaf0" opacity="0.34"/>
<circle cx="1398.9" cy="232.8" r="0.5" fill="#fffaf0" opacity="0.66"/>
<circle cx="723.7" cy="276.4" r="1.1" fill="#d4a373" opacity="0.69"/>
<circle cx="1140.7" cy="140.9" r="0.5" fill="#f5e6c8" opacity="0.88"/>
<circle cx="737.8" cy="13.1" r="0.7" fill="#fffaf0" opacity="0.7"/>
<circle cx="617.4" cy="400.4" r="1.1" fill="#fffaf0" opacity="0.44"/>
<circle cx="811.3" cy="252.3" r="0.7" fill="#f5e6c8" opacity="0.42"/>
<circle cx="1773.9" cy="302.9" r="0.5" fill="#fffaf0" opacity="0.88"/>
<circle cx="1968.0" cy="138.5" r="0.5" fill="#fffaf0" opacity="0.76"/>
<circle cx="2284.6" cy="297.5" r="0.5" fill="#fffaf0" opacity="0.43"/>
<circle cx="1596.7" cy="569.3" r="0.5" fill="#fffaf0" opacity="0.54"/>
<circle cx="2337.9" cy="85.1" r="0.5" fill="#fffaf0" opacity="0.34"/>
<circle cx="2155.6" cy="530.2" r="0.9" fill="#a3b8d1" opacity="0.9"/>
<circle cx="790.2" cy="111.3" r="1.1" fill="#fffaf0" opacity="0.75"/>
<circle cx="1594.6" cy="227.2" r="0.5" fill="#fffaf0" opacity="0.5"/>
<circle cx="6.9" cy="167.9" r="0.5" fill="#fffaf0" opacity="0.87"/>
<circle cx="2314.3" cy="124.4" r="0.5" fill="#d4a373" opacity="0.79"/>
<circle cx="1037.9" cy="29.6" r="0.7" fill="#d4a373" opacity="0.52"/>
<circle cx="463.3" cy="218.5" r="1.1" fill="#fffaf0" opacity="0.32"/>
<circle cx="1948.4" cy="460.0" r="0.5" fill="#fffaf0" opacity="0.32"/>
<circle cx="2208.2" cy="154.2" r="0.9" fill="#fffaf0" opacity="0.84"/>
<circle cx="653.6" cy="574.6" r="0.7" fill="#f5e6c8" opacity="0.46"/>
<circle cx="759.6" cy="165.4" r="0.5" fill="#d4a373" opacity="0.75"/>
<circle cx="1521.6" cy="566.0" r="0.5" fill="#fffaf0" opacity="0.44"/>
<circle cx="2296.3" cy="572.3" r="0.5" fill="#fffaf0" opacity="0.45"/>
<circle cx="1184.3" cy="556.9" r="0.5" fill="#f5e6c8" opacity="0.78"/>
<circle cx="1974.6" cy="463.7" r="0.7" fill="#fffaf0" opacity="0.5"/>
<circle cx="868.5" cy="469.3" r="0.5" fill="#f5e6c8" opacity="0.42"/>
<circle cx="593.5" cy="38.8" r="0.5" fill="#fffaf0" opacity="0.63"/>
<circle cx="2352.6" cy="530.1" r="1.5" fill="#fffaf0" opacity="0.46"/>
<circle cx="231.4" cy="299.1" r="0.9" fill="#fffaf0" opacity="0.57"/>
<circle cx="1000.4" cy="372.2" r="0.7" fill="#d4a373" opacity="0.75"/>
<circle cx="1594.6" cy="72.7" r="0.9" fill="#f5e6c8" opacity="0.48"/>
<circle cx="895.1" cy="442.8" r="0.5" fill="#fffaf0" opacity="0.45"/>
<circle cx="368.0" cy="530.5" r="0.7" fill="#fffaf0" opacity="0.5"/>
<circle cx="2381.9" cy="304.4" r="0.5" fill="#f5e6c8" opacity="0.79"/>
<circle cx="2378.3" cy="61.4" r="0.7" fill="#d4a373" opacity="0.79"/>
<circle cx="2194.5" cy="24.2" r="0.5" fill="#fffaf0" opacity="0.37"/>
<circle cx="2335.1" cy="349.9" r="1.1" fill="#d4a373" opacity="0.52"/>
<circle cx="1077.9" cy="156.0" r="0.9" fill="#fffaf0" opacity="0.87"/>
<circle cx="1430.8" cy="372.0" r="0.5" fill="#fffaf0" opacity="0.52"/>
<circle cx="489.5" cy="152.9" r="0.7" fill="#fffaf0" opacity="0.69"/>
<circle cx="27.3" cy="196.3" r="0.7" fill="#fffaf0" opacity="0.41"/>
<circle cx="488.2" cy="477.2" r="0.7" fill="#fffaf0" opacity="0.34"/>
<circle cx="948.7" cy="330.1" r="0.7" fill="#fffaf0" opacity="0.35"/>
<circle cx="1669.0" cy="245.9" r="0.5" fill="#a3b8d1" opacity="0.48"/>
<circle cx="749.7" cy="339.9" r="0.5" fill="#d4a373" opacity="0.55"/>
<circle cx="2391.9" cy="218.3" r="0.5" fill="#fffaf0" opacity="0.74"/>
<circle cx="14.1" cy="541.0" r="0.7" fill="#fffaf0" opacity="0.79"/>
<circle cx="2118.8" cy="276.5" r="0.5" fill="#f5e6c8" opacity="0.31"/>
<circle cx="1537.6" cy="545.9" r="0.5" fill="#fffaf0" opacity="0.67"/>
<circle cx="1210.7" cy="87.5" r="0.5" fill="#a3b8d1" opacity="0.61"/>
<circle cx="261.1" cy="294.3" r="0.9" fill="#fffaf0" opacity="0.88"/>
<circle cx="304.0" cy="565.8" r="1.5" fill="#fffaf0" opacity="0.59"/>
<circle cx="2222.8" cy="232.7" r="1.1" fill="#d4a373" opacity="0.67"/>
<circle cx="384.7" cy="471.5" r="0.5" fill="#d4a373" opacity="0.54"/>
<circle cx="1990.1" cy="109.8" r="0.5" fill="#fffaf0" opacity="0.54"/>
<circle cx="920.6" cy="73.8" r="0.5" fill="#d4a373" opacity="0.73"/>
<circle cx="98.6" cy="337.4" r="0.9" fill="#d4a373" opacity="0.32"/>
<circle cx="282.6" cy="359.7" r="0.7" fill="#fffaf0" opacity="0.68"/>
<circle cx="1008.2" cy="349.6" r="0.7" fill="#fffaf0" opacity="0.7"/>
<circle cx="1052.0" cy="14.0" r="0.7" fill="#fffaf0" opacity="0.59"/>
<circle cx="1832.6" cy="468.0" r="0.7" fill="#fffaf0" opacity="0.41"/>
<circle cx="257.0" cy="77.1" r="0.7" fill="#fffaf0" opacity="0.36"/>
<circle cx="1224.4" cy="24.5" r="0.7" fill="#f5e6c8" opacity="0.35"/>
<circle cx="1866.3" cy="306.9" r="0.5" fill="#fffaf0" opacity="0.6"/>
<circle cx="2282.1" cy="81.7" r="0.9" fill="#f5e6c8" opacity="0.9"/>
<circle cx="1956.0" cy="116.2" r="1.5" fill="#a3b8d1" opacity="0.6"/>
<circle cx="2198.5" cy="99.1" r="0.9" fill="#fffaf0" opacity="0.86"/>
<circle cx="842.2" cy="453.7" r="0.5" fill="#fffaf0" opacity="0.84"/>
<circle cx="1957.5" cy="86.1" r="0.7" fill="#fffaf0" opacity="0.85"/>
<circle cx="630.9" cy="303.6" r="0.5" fill="#fffaf0" opacity="0.32"/>
<circle cx="387.0" cy="561.8" r="0.7" fill="#fffaf0" opacity="0.84"/>
<circle cx="1883.7" cy="69.0" r="0.7" fill="#fffaf0" opacity="0.68"/>
<circle cx="2095.1" cy="333.1" r="0.7" fill="#fffaf0" opacity="0.83"/>
<circle cx="2383.1" cy="377.9" r="0.5" fill="#fffaf0" opacity="0.78"/>
<circle cx="2377.2" cy="346.4" r="0.5" fill="#fffaf0" opacity="0.76"/>
<circle cx="424.2" cy="446.2" r="0.5" fill="#fffaf0" opacity="0.79"/>
<circle cx="1534.2" cy="590.4" r="0.7" fill="#fffaf0" opacity="0.7"/>
<circle cx="4.3" cy="20.3" r="0.5" fill="#fffaf0" opacity="0.67"/>
<circle cx="1230.4" cy="537.3" r="0.5" fill="#f5e6c8" opacity="0.44"/>
<circle cx="53.5" cy="1.6" r="0.5" fill="#fffaf0" opacity="0.36"/>
<circle cx="538.2" cy="350.2" r="0.7" fill="#f5e6c8" opacity="0.42"/>
<circle cx="1139.8" cy="80.8" r="1.1" fill="#fffaf0" opacity="0.45"/>
<circle cx="229.9" cy="382.9" r="0.9" fill="#fffaf0" opacity="0.77"/>
<circle cx="634.2" cy="6.9" r="0.7" fill="#fffaf0" opacity="0.64"/>
<circle cx="1549.4" cy="266.3" r="1.1" fill="#fffaf0" opacity="0.74"/>
<circle cx="2168.4" cy="26.4" r="0.7" fill="#fffaf0" opacity="0.54"/>
<circle cx="140.1" cy="467.3" r="0.5" fill="#a3b8d1" opacity="0.63"/>
<circle cx="341.4" cy="119.7" r="0.7" fill="#f5e6c8" opacity="0.6"/>
<circle cx="1952.1" cy="104.8" r="0.5" fill="#fffaf0" opacity="0.48"/>
<circle cx="2134.4" cy="469.8" r="0.9" fill="#d4a373" opacity="0.3"/>
<circle cx="1788.4" cy="279.2" r="0.9" fill="#fffaf0" opacity="0.57"/>
<circle cx="252.7" cy="139.4" r="0.5" fill="#f5e6c8" opacity="0.5"/>
<circle cx="1668.3" cy="507.2" r="0.9" fill="#f5e6c8" opacity="0.46"/>
<circle cx="1046.5" cy="473.1" r="0.7" fill="#f5e6c8" opacity="0.46"/>
<circle cx="2316.3" cy="130.2" r="1.1" fill="#fffaf0" opacity="0.31"/>
<circle cx="566.7" cy="446.3" r="1.1" fill="#fffaf0" opacity="0.75"/>
<circle cx="2112.4" cy="197.1" r="0.5" fill="#f5e6c8" opacity="0.84"/>
<circle cx="1662.8" cy="399.1" r="1.5" fill="#d4a373" opacity="0.58"/>
<circle cx="1674.3" cy="514.5" r="0.7" fill="#f5e6c8" opacity="0.73"/>
<circle cx="738.6" cy="127.2" r="0.7" fill="#d4a373" opacity="0.35"/>
<circle cx="347.0" cy="16.1" r="0.5" fill="#fffaf0" opacity="0.86"/>
<circle cx="340.4" cy="17.2" r="0.5" fill="#f5e6c8" opacity="0.72"/>
<circle cx="1672.8" cy="442.1" r="0.5" fill="#fffaf0" opacity="0.65"/>
<circle cx="1962.1" cy="491.7" r="1.1" fill="#d4a373" opacity="0.34"/>
<circle cx="2194.6" cy="566.6" r="0.5" fill="#fffaf0" opacity="0.42"/>
<circle cx="82.6" cy="508.6" r="0.9" fill="#d4a373" opacity="0.68"/>
<circle cx="1515.7" cy="172.4" r="0.5" fill="#f5e6c8" opacity="0.36"/>
<circle cx="492.0" cy="191.5" r="0.7" fill="#fffaf0" opacity="0.31"/>
<circle cx="678.2" cy="429.5" r="0.5" fill="#a3b8d1" opacity="0.49"/>
<circle cx="1209.0" cy="510.8" r="0.7" fill="#fffaf0" opacity="0.32"/>
<circle cx="1047.5" cy="463.8" r="0.5" fill="#fffaf0" opacity="0.72"/>
<circle cx="519.8" cy="517.3" r="0.5" fill="#fffaf0" opacity="0.79"/>
<circle cx="3.1" cy="121.2" r="0.9" fill="#fffaf0" opacity="0.89"/>
<circle cx="1178.0" cy="294.9" r="0.9" fill="#fffaf0" opacity="0.41"/>
<circle cx="833.2" cy="499.1" r="0.5" fill="#fffaf0" opacity="0.87"/>
<circle cx="515.3" cy="419.7" r="0.7" fill="#f5e6c8" opacity="0.37"/>
<circle cx="194.1" cy="472.7" r="0.7" fill="#f5e6c8" opacity="0.77"/>
<circle cx="853.5" cy="240.8" r="0.5" fill="#fffaf0" opacity="0.83"/>
<circle cx="2132.3" cy="15.1" r="0.5" fill="#d4a373" opacity="0.46"/>
<circle cx="1202.9" cy="227.6" r="1.1" fill="#fffaf0" opacity="0.44"/>
<circle cx="1275.7" cy="452.7" r="0.9" fill="#fffaf0" opacity="0.69"/>
<circle cx="784.0" cy="93.2" r="0.9" fill="#f5e6c8" opacity="0.7"/>
<circle cx="406.9" cy="263.3" r="0.9" fill="#fffaf0" opacity="0.65"/>
<circle cx="1108.8" cy="531.1" r="0.5" fill="#fffaf0" opacity="0.41"/>
<circle cx="1687.6" cy="506.2" r="0.5" fill="#fffaf0" opacity="0.39"/>
<circle cx="783.8" cy="313.3" r="0.5" fill="#fffaf0" opacity="0.5"/>
<circle cx="2340.4" cy="437.2" r="0.5" fill="#fffaf0" opacity="0.88"/>
<circle cx="922.2" cy="590.3" r="0.9" fill="#fffaf0" opacity="0.74"/>
<circle cx="470.9" cy="382.8" r="0.5" fill="#fffaf0" opacity="0.42"/>
<circle cx="81.4" cy="239.4" r="0.9" fill="#fffaf0" opacity="0.72"/>
<circle cx="1517.7" cy="278.0" r="0.5" fill="#fffaf0" opacity="0.66"/>
<circle cx="1778.3" cy="544.8" r="0.7" fill="#f5e6c8" opacity="0.64"/>
<circle cx="1010.8" cy="137.1" r="0.9" fill="#f5e6c8" opacity="0.83"/>
<circle cx="1680.2" cy="511.5" r="0.7" fill="#fffaf0" opacity="0.68"/>
<circle cx="751.2" cy="377.0" r="0.5" fill="#f5e6c8" opacity="0.55"/>
<circle cx="1711.6" cy="377.8" r="0.5" fill="#fffaf0" opacity="0.55"/>
<circle cx="1491.8" cy="245.6" r="0.7" fill="#fffaf0" opacity="0.86"/>
<circle cx="1570.8" cy="466.9" r="0.5" fill="#a3b8d1" opacity="0.59"/>
<circle cx="91.5" cy="326.0" r="0.5" fill="#a3b8d1" opacity="0.77"/>
<circle cx="1246.1" cy="60.7" r="0.7" fill="#f5e6c8" opacity="0.62"/>
<circle cx="1229.3" cy="383.6" r="0.9" fill="#fffaf0" opacity="0.61"/>
<circle cx="2275.1" cy="126.1" r="0.7" fill="#f5e6c8" opacity="0.54"/>
<circle cx="293.7" cy="590.7" r="0.5" fill="#fffaf0" opacity="0.33"/>
<circle cx="959.2" cy="8.0" r="0.7" fill="#f5e6c8" opacity="0.55"/>
<circle cx="845.1" cy="159.1" r="0.5" fill="#a3b8d1" opacity="0.74"/>
<circle cx="1265.0" cy="131.3" r="0.9" fill="#fffaf0" opacity="0.54"/>
<circle cx="310.3" cy="466.0" r="0.9" fill="#fffaf0" opacity="0.68"/>
<circle cx="1348.9" cy="135.6" r="1.5" fill="#f5e6c8" opacity="0.51"/>
<circle cx="1965.0" cy="489.7" r="0.7" fill="#fffaf0" opacity="0.48"/>
<circle cx="300.4" cy="500.2" r="0.5" fill="#fffaf0" opacity="0.81"/>
<circle cx="902.8" cy="152.1" r="0.7" fill="#fffaf0" opacity="0.41"/>
<circle cx="1732.3" cy="168.7" r="0.5" fill="#fffaf0" opacity="0.48"/>
<circle cx="1028.4" cy="382.4" r="0.7" fill="#a3b8d1" opacity="0.52"/>
<circle cx="2050.7" cy="34.2" r="0.9" fill="#f5e6c8" opacity="0.84"/>
<circle cx="337.0" cy="498.8" r="0.7" fill="#fffaf0" opacity="0.31"/>
<circle cx="2284.2" cy="393.6" r="0.5" fill="#fffaf0" opacity="0.36"/>
<circle cx="560.7" cy="465.8" r="0.5" fill="#d4a373" opacity="0.39"/>
<circle cx="1900.0" cy="100.7" r="1.1" fill="#f5e6c8" opacity="0.67"/>
<circle cx="1604.3" cy="536.3" r="0.9" fill="#fffaf0" opacity="0.8"/>
<circle cx="1662.7" cy="318.5" r="0.9" fill="#d4a373" opacity="0.56"/>
<circle cx="1332.2" cy="158.7" r="0.5" fill="#fffaf0" opacity="0.38"/>
<circle cx="140.3" cy="280.3" r="0.5" fill="#fffaf0" opacity="0.59"/>
<circle cx="1294.9" cy="517.7" r="0.5" fill="#fffaf0" opacity="0.8"/>
<circle cx="1350.2" cy="399.2" r="0.9" fill="#fffaf0" opacity="0.52"/>
<circle cx="2305.5" cy="45.2" r="0.7" fill="#fffaf0" opacity="0.68"/>
<circle cx="1463.2" cy="409.6" r="1.1" fill="#a3b8d1" opacity="0.5"/>
<circle cx="1225.5" cy="290.8" r="1.1" fill="#f5e6c8" opacity="0.32"/>
<circle cx="1500.7" cy="203.2" r="0.9" fill="#fffaf0" opacity="0.52"/>
<circle cx="1261.3" cy="462.3" r="0.5" fill="#fffaf0" opacity="0.56"/>
<circle cx="1329.7" cy="496.0" r="0.5" fill="#fffaf0" opacity="0.8"/>
<circle cx="1209.0" cy="163.0" r="0.7" fill="#f5e6c8" opacity="0.88"/>
<circle cx="1900.7" cy="198.5" r="0.5" fill="#f5e6c8" opacity="0.48"/>
<circle cx="1523.6" cy="470.5" r="0.5" fill="#d4a373" opacity="0.73"/>
<circle cx="1309.0" cy="29.8" r="0.5" fill="#fffaf0" opacity="0.3"/>
<circle cx="2211.4" cy="365.2" r="0.7" fill="#d4a373" opacity="0.77"/>
<circle cx="1468.2" cy="370.0" r="0.7" fill="#f5e6c8" opacity="0.72"/>
<circle cx="1634.4" cy="127.5" r="0.7" fill="#f5e6c8" opacity="0.57"/>
<circle cx="243.3" cy="108.8" r="0.5" fill="#d4a373" opacity="0.76"/>
<circle cx="1573.7" cy="221.3" r="0.9" fill="#f5e6c8" opacity="0.77"/>
<circle cx="619.2" cy="181.2" r="0.7" fill="#fffaf0" opacity="0.49"/>
<circle cx="1540.2" cy="560.3" r="0.5" fill="#fffaf0" opacity="0.64"/>
<circle cx="285.2" cy="486.2" r="0.7" fill="#fffaf0" opacity="0.85"/>
<circle cx="33.9" cy="232.3" r="0.7" fill="#a3b8d1" opacity="0.86"/>
<circle cx="1141.1" cy="247.5" r="0.5" fill="#fffaf0" opacity="0.69"/>
<circle cx="364.2" cy="9.3" r="0.5" fill="#fffaf0" opacity="0.71"/>
<circle cx="2319.2" cy="52.9" r="0.9" fill="#fffaf0" opacity="0.38"/>
<circle cx="1726.4" cy="145.4" r="0.9" fill="#fffaf0" opacity="0.41"/>
<circle cx="1857.7" cy="428.1" r="0.9" fill="#fffaf0" opacity="0.74"/>
<circle cx="1508.7" cy="425.5" r="0.7" fill="#fffaf0" opacity="0.86"/>
<circle cx="2314.4" cy="430.3" r="0.5" fill="#f5e6c8" opacity="0.31"/>
<circle cx="1961.6" cy="47.8" r="0.5" fill="#fffaf0" opacity="0.74"/>
<circle cx="2066.3" cy="291.8" r="0.5" fill="#f5e6c8" opacity="0.52"/>
<circle cx="1052.9" cy="406.1" r="0.5" fill="#fffaf0" opacity="0.78"/>
<circle cx="1547.7" cy="377.8" r="0.7" fill="#f5e6c8" opacity="0.53"/>
<circle cx="2267.8" cy="470.8" r="0.7" fill="#fffaf0" opacity="0.48"/>
<circle cx="2337.5" cy="422.0" r="0.9" fill="#f5e6c8" opacity="0.5"/>
<circle cx="2345.9" cy="498.8" r="0.7" fill="#fffaf0" opacity="0.49"/>
<circle cx="2131.5" cy="226.0" r="0.7" fill="#d4a373" opacity="0.66"/>
<circle cx="1938.0" cy="170.0" r="0.5" fill="#fffaf0" opacity="0.46"/>
<circle cx="1407.9" cy="489.6" r="1.1" fill="#d4a373" opacity="0.33"/>
<circle cx="1948.2" cy="520.3" r="0.7" fill="#d4a373" opacity="0.46"/>
<circle cx="1936.9" cy="410.8" r="1.1" fill="#fffaf0" opacity="0.51"/>
<circle cx="1328.8" cy="478.4" r="0.5" fill="#a3b8d1" opacity="0.75"/>
<circle cx="561.7" cy="364.1" r="0.7" fill="#fffaf0" opacity="0.58"/>
<circle cx="611.4" cy="450.7" r="0.9" fill="#fffaf0" opacity="0.58"/>
<circle cx="1935.8" cy="463.3" r="0.5" fill="#d4a373" opacity="0.65"/>
<circle cx="2124.2" cy="313.1" r="0.7" fill="#fffaf0" opacity="0.65"/>
<circle cx="461.6" cy="108.4" r="0.9" fill="#f5e6c8" opacity="0.52"/>
<circle cx="966.0" cy="310.3" r="0.5" fill="#a3b8d1" opacity="0.33"/>
<circle cx="897.7" cy="63.7" r="0.7" fill="#fffaf0" opacity="0.77"/>
<circle cx="1433.3" cy="207.0" r="0.7" fill="#fffaf0" opacity="0.31"/>
<circle cx="2377.0" cy="519.6" r="0.7" fill="#fffaf0" opacity="0.64"/>
<circle cx="1870.1" cy="255.6" r="1.1" fill="#d4a373" opacity="0.76"/>
<circle cx="2312.3" cy="152.4" r="0.5" fill="#fffaf0" opacity="0.42"/>
<circle cx="200.8" cy="30.6" r="0.7" fill="#fffaf0" opacity="0.82"/>
<circle cx="2273.3" cy="546.0" r="0.5" fill="#fffaf0" opacity="0.66"/>
<circle cx="287.8" cy="575.6" r="0.5" fill="#f5e6c8" opacity="0.64"/>
<circle cx="2295.4" cy="401.8" r="0.5" fill="#fffaf0" opacity="0.57"/>
<circle cx="2317.8" cy="595.0" r="0.5" fill="#fffaf0" opacity="0.32"/>
<circle cx="844.8" cy="541.7" r="1.1" fill="#fffaf0" opacity="0.8"/>
<circle cx="1887.3" cy="425.8" r="0.7" fill="#fffaf0" opacity="0.89"/>
<circle cx="347.5" cy="453.0" r="1.1" fill="#fffaf0" opacity="0.71"/>
<circle cx="1419.5" cy="454.7" r="0.5" fill="#fffaf0" opacity="0.49"/>
<circle cx="297.9" cy="288.8" r="0.5" fill="#fffaf0" opacity="0.44"/>
<circle cx="1626.3" cy="7.6" r="0.9" fill="#fffaf0" opacity="0.42"/>
<circle cx="2226.4" cy="132.3" r="1.1" fill="#d4a373" opacity="0.82"/>
<circle cx="335.4" cy="268.3" r="0.5" fill="#d4a373" opacity="0.86"/>
<circle cx="1508.1" cy="271.4" r="0.5" fill="#fffaf0" opacity="0.79"/>
<circle cx="1507.6" cy="85.7" r="0.5" fill="#f5e6c8" opacity="0.33"/>
<circle cx="1328.1" cy="86.8" r="0.9" fill="#fffaf0" opacity="0.46"/>
<circle cx="373.6" cy="162.7" r="0.9" fill="#fffaf0" opacity="0.5"/>
<circle cx="1178.4" cy="190.8" r="1.1" fill="#a3b8d1" opacity="0.37"/>
<circle cx="136.4" cy="537.0" r="0.7" fill="#fffaf0" opacity="0.43"/>
<circle cx="687.0" cy="154.7" r="0.5" fill="#a3b8d1" opacity="0.52"/>
<circle cx="2395.4" cy="555.0" r="0.5" fill="#d4a373" opacity="0.47"/>
<circle cx="138.0" cy="435.9" r="0.5" fill="#fffaf0" opacity="0.89"/>
<circle cx="1936.9" cy="204.5" r="0.5" fill="#d4a373" opacity="0.3"/>
<circle cx="1263.8" cy="111.5" r="0.7" fill="#fffaf0" opacity="0.85"/>
<circle cx="1371.2" cy="82.8" r="0.5" fill="#f5e6c8" opacity="0.76"/>
<circle cx="472.1" cy="47.6" r="0.5" fill="#fffaf0" opacity="0.67"/>
<circle cx="657.3" cy="123.6" r="0.7" fill="#d4a373" opacity="0.72"/>
<circle cx="1399.0" cy="121.4" r="0.5" fill="#fffaf0" opacity="0.74"/>
<circle cx="1732.0" cy="33.2" r="0.9" fill="#d4a373" opacity="0.5"/>
<circle cx="2074.8" cy="295.8" r="0.5" fill="#fffaf0" opacity="0.85"/>
<circle cx="2055.6" cy="183.1" r="6.2" fill="#fff3d6" opacity="0.10"/>
<circle cx="2055.6" cy="183.1" r="3.1" fill="#fff3d6" opacity="0.25"/>
<circle cx="2055.6" cy="183.1" r="1.5" fill="#fff3d6" opacity="1.0"/>
<circle cx="134.3" cy="401.1" r="7.4" fill="#ffffff" opacity="0.10"/>
<circle cx="134.3" cy="401.1" r="3.7" fill="#ffffff" opacity="0.25"/>
<circle cx="134.3" cy="401.1" r="1.9" fill="#ffffff" opacity="1.0"/>
<circle cx="869.2" cy="516.1" r="8.7" fill="#ffffff" opacity="0.10"/>
<circle cx="869.2" cy="516.1" r="4.3" fill="#ffffff" opacity="0.25"/>
<circle cx="869.2" cy="516.1" r="2.2" fill="#ffffff" opacity="1.0"/>
<circle cx="327.8" cy="407.3" r="8.2" fill="#fff3d6" opacity="0.10"/>
<circle cx="327.8" cy="407.3" r="4.1" fill="#fff3d6" opacity="0.25"/>
<circle cx="327.8" cy="407.3" r="2.1" fill="#fff3d6" opacity="1.0"/>
<circle cx="1842.0" cy="484.0" r="7.4" fill="#ffffff" opacity="0.10"/>
<circle cx="1842.0" cy="484.0" r="3.7" fill="#ffffff" opacity="0.25"/>
<circle cx="1842.0" cy="484.0" r="1.9" fill="#ffffff" opacity="1.0"/>
<circle cx="720.5" cy="103.8" r="7.9" fill="#fff3d6" opacity="0.10"/>
<circle cx="720.5" cy="103.8" r="4.0" fill="#fff3d6" opacity="0.25"/>
<circle cx="720.5" cy="103.8" r="2.0" fill="#fff3d6" opacity="1.0"/>
<circle cx="1230.6" cy="315.3" r="7.3" fill="#ffffff" opacity="0.10"/>
<circle cx="1230.6" cy="315.3" r="3.7" fill="#ffffff" opacity="0.25"/>
<circle cx="1230.6" cy="315.3" r="1.8" fill="#ffffff" opacity="1.0"/>
<circle cx="610.1" cy="94.3" r="7.6" fill="#ffffff" opacity="0.10"/>
<circle cx="610.1" cy="94.3" r="3.8" fill="#ffffff" opacity="0.25"/>
<circle cx="610.1" cy="94.3" r="1.9" fill="#ffffff" opacity="1.0"/>
<circle cx="286.2" cy="175.2" r="8.2" fill="#ffffff" opacity="0.10"/>
<circle cx="286.2" cy="175.2" r="4.1" fill="#ffffff" opacity="0.25"/>
<circle cx="286.2" cy="175.2" r="2.1" fill="#ffffff" opacity="1.0"/>
<circle cx="94.7" cy="513.2" r="8.0" fill="#fff3d6" opacity="0.10"/>
<circle cx="94.7" cy="513.2" r="4.0" fill="#fff3d6" opacity="0.25"/>
<circle cx="94.7" cy="513.2" r="2.0" fill="#fff3d6" opacity="1.0"/>
<circle cx="90.7" cy="349.7" r="7.4" fill="#d4a373" opacity="0.10"/>
<circle cx="90.7" cy="349.7" r="3.7" fill="#d4a373" opacity="0.25"/>
<circle cx="90.7" cy="349.7" r="1.9" fill="#d4a373" opacity="1.0"/>
<circle cx="598.2" cy="272.1" r="6.7" fill="#ffffff" opacity="0.10"/>
<circle cx="598.2" cy="272.1" r="3.4" fill="#ffffff" opacity="0.25"/>
<circle cx="598.2" cy="272.1" r="1.7" fill="#ffffff" opacity="1.0"/>
</svg>
