<svg xmlns="http://www.w3.org/2000/svg" viewBox="0 0 240 1600" preserveAspectRatio="xMidYMid slice">
<defs>
<linearGradient id="fade" x1="1" y1="0" x2="0" y2="0">
  <stop offset="0%"  stop-color="#0a0805" stop-opacity="0.95"/>
  <stop offset="80%" stop-color="#0a0805" stop-opacity="0.55"/>
  <stop offset="100%" stop-color="#0a0805" stop-opacity="0"/>
</linearGradient>
<radialGradient id="n1" cx="40%" cy="20%" r="50%">
  <stop offset="0%"  stop-color="#d4a373" stop-opacity="0.25"/>
  <stop offset="100%" stop-color="#d4a373" stop-opacity="0"/>
</radialGradient>
<radialGradient id="n2" cx="60%" cy="75%" r="60%">
  <stop offset="0%"  stop-color="#7a8da3" stop-opacity="0.20"/>
  <stop offset="100%" stop-color="#7a8da3" stop-opacity="0"/>
</radialGradient>
</defs>
<rect width="240" height="1600" fill="url(#fade)"/>
<rect width="240" height="1600" fill="url(#n1)"/>
<rect width="240" height="1600" fill="url(#n2)"/>
<circle cx="2.9" cy="179.8" r="0.5" fill="#fffaf0" opacity="0.71"/>
<circle cx="27.0" cy="370.9" r="0.8" fill="#f5e6c8" opacity="0.39"/>
<circle cx="158.9" cy="218.5" r="0.5" fill="#fffaf0" opacity="0.57"/>
<circle cx="239.1" cy="149.0" r="0.5" fill="#fffaf0" opacity="0.86"/>
<circle cx="47.6" cy="528.5" r="0.5" fill="#fffaf0" opacity="0.87"/>
<circle cx="52.1" cy="935.8" r="0.5" fill="#d4a373" opacity="0.87"/>
<circle cx="85.3" cy="326.2" r="1.1" fill="#fffaf0" opacity="0.89"/>
<circle cx="176.4" cy="1389.4" r="0.8" fill="#f5e6c8" opacity="0.43"/>
<circle cx="175.2" cy="310.1" r="0.8" fill="#fffaf0" opacity="0.43"/>
<circle cx="80.6" cy="534.9" r="0.5" fill="#d4a373" opacity="0.69"/>
<circle cx="230.7" cy="1562.3" r="1.5" fill="#fffaf0" opacity="0.77"/>
<circle cx="42.3" cy="998.0" r="0.5" fill="#fffaf0" opacity="0.7"/>
<circle cx="46.3" cy="1473.6" r="0.8" fill="#fffaf0" opacity="0.72"/>
<circle cx="95.8" cy="1456.1" r="0.8" fill="#fffaf0" opacity="0.89"/>
<circle cx="109.2" cy="1280.9" r="0.5" fill="#f5e6c8" opacity="0.77"/>
<circle cx="28.3" cy="158.2" r="1.5" fill="#fffaf0" opacity="0.37"/>
<circle cx="80.5" cy="1141.5" r="1.1" fill="#fffaf0" opacity="0.59"/>
<circle cx="189.2" cy="444.8" r="0.5" fill="#f5e6c8" opacity="0.67"/>
<circle cx="9.1" cy="179.2" r="0.5" fill="#f5e6c8" opacity="0.74"/>
<circle cx="233.6" cy="1228.1" r="0.5" fill="#a3b8d1" opacity="0.76"/>
<circle cx="83.7" cy="17.9" r="0.5" fill="#fffaf0" opacity="0.47"/>
<circle cx="10.8" cy="199.8" r="1.1" fill="#f5e6c8" opacity="0.33"/>
<circle cx="49.6" cy="309.3" r="0.8" fill="#fffaf0" opacity="0.48"/>
<circle cx="109.2" cy="1111.9" r="0.5" fill="#fffaf0" opacity="0.82"/>
<circle cx="125.8" cy="1147.4" r="0.5" fill="#fffaf0" opacity="0.73"/>
<circle cx="32.1" cy="197.6" r="0.8" fill="#a3b8d1" opacity="0.75"/>
<circle cx="165.6" cy="927.6" r="0.5" fill="#fffaf0" opacity="0.81"/>
<circle cx="102.0" cy="225.0" r="0.5" fill="#fffaf0" opacity="0.48"/>
<circle cx="170.7" cy="866.5" r="0.5" fill="#f5e6c8" opacity="0.77"/>
<circle cx="198.5" cy="52.8" r="0.8" fill="#fffaf0" opacity="0.84"/>
<circle cx="48.5" cy="1302.2" r="0.5" fill="#d4a373" opacity="0.54"/>
<circle cx="92.2" cy="317.5" r="0.5" fill="#f5e6c8" opacity="0.51"/>
<circle cx="88.4" cy="1233.7" r="0.5" fill="#f5e6c8" opacity="0.45"/>
<circle cx="115.1" cy="799.8" r="1.1" fill="#fffaf0" opacity="0.47"/>
<circle cx="8.1" cy="772.0" r="0.5" fill="#fffaf0" opacity="0.58"/>
<circle cx="0.0" cy="607.5" r="0.8" fill="#d4a373" opacity="0.48"/>
<circle cx="139.1" cy="645.5" r="0.8" fill="#f5e6c8" opacity="0.44"/>
<circle cx="203.2" cy="865.5" r="0.5" fill="#f5e6c8" opacity="0.36"/>
<circle cx="45.0" cy="597.1" r="0.5" fill="#f5e6c8" opacity="0.86"/>
<circle cx="124.6" cy="1373.4" r="0.5" fill="#f5e6c8" opacity="0.53"/>
<circle cx="133.0" cy="354.6" r="0.5" fill="#fffaf0" opacity="0.79"/>
<circle cx="169.4" cy="77.0" r="1.1" fill="#fffaf0" opacity="0.71"/>
<circle cx="236.0" cy="1274.4" r="0.5" fill="#fffaf0" opacity="0.45"/>
<circle cx="239.6" cy="225.1" r="0.5" fill="#fffaf0" opacity="0.49"/>
<circle cx="98.1" cy="861.6" r="0.5" fill="#fffaf0" opacity="0.38"/>
<circle cx="192.7" cy="704.0" r="0.5" fill="#f5e6c8" opacity="0.59"/>
<circle cx="216.2" cy="1323.4" r="0.8" fill="#fffaf0" opacity="0.5"/>
<circle cx="21.5" cy="1374.5" r="0.5" fill="#d4a373" opacity="0.64"/>
<circle cx="77.3" cy="622.6" r="0.5" fill="#f5e6c8" opacity="0.87"/>
<circle cx="201.3" cy="62.1" r="0.8" fill="#fffaf0" opacity="0.57"/>
<circle cx="196.0" cy="1176.5" r="1.1" fill="#d4a373" opacity="0.74"/>
<circle cx="102.8" cy="889.8" r="0.8" fill="#fffaf0" opacity="0.57"/>
<circle cx="140.5" cy="1393.9" r="1.1" fill="#fffaf0" opacity="0.38"/>
<circle cx="54.9" cy="545.6" r="1.1" fill="#fffaf0" opacity="0.55"/>
<circle cx="65.4" cy="704.6" r="0.8" fill="#fffaf0" opacity="0.51"/>
<circle cx="54.3" cy="415.9" r="1.1" fill="#f5e6c8" opacity="0.4"/>
<circle cx="26.0" cy="1257.5" r="0.5" fill="#fffaf0" opacity="0.77"/>
<circle cx="18.8" cy="151.2" r="0.8" fill="#fffaf0" opacity="0.63"/>
<circle cx="84.5" cy="1106.2" r="0.5" fill="#f5e6c8" opacity="0.34"/>
<circle cx="75.3" cy="1354.7" r="0.5" fill="#fffaf0" opacity="0.76"/>
<circle cx="169.7" cy="976.8" r="1.1" fill="#f5e6c8" opacity="0.83"/>
<circle cx="142.1" cy="1227.3" r="0.5" fill="#f5e6c8" opacity="0.63"/>
<circle cx="142.7" cy="868.0" r="1.1" fill="#fffaf0" opacity="0.89"/>
<circle cx="18.0" cy="981.5" r="0.5" fill="#fffaf0" opacity="0.88"/>
<circle cx="128.2" cy="1307.8" r="1.1" fill="#fffaf0" opacity="0.39"/>
<circle cx="43.3" cy="736.7" r="0.5" fill="#fffaf0" opacity="0.83"/>
<circle cx="93.4" cy="1436.0" r="0.8" fill="#fffaf0" opacity="0.5"/>
<circle cx="159.2" cy="300.5" r="0.5" fill="#fffaf0" opacity="0.81"/>
<circle cx="169.9" cy="1180.8" r="0.8" fill="#d4a373" opacity="0.51"/>
<circle cx="188.8" cy="113.7" r="1.1" fill="#fffaf0" opacity="0.68"/>
<circle cx="40.5" cy="156.9" r="0.8" fill="#fffaf0" opacity="0.81"/>
<circle cx="43.2" cy="117.2" r="0.5" fill="#fffaf0" opacity="0.48"/>
<circle cx="71.4" cy="1313.9" r="0.5" fill="#fffaf0" opacity="0.54"/>
<circle cx="38.8" cy="58.3" r="0.5" fill="#a3b8d1" opacity="0.39"/>
<circle cx="206.8" cy="1128.2" r="1.1" fill="#fffaf0" opacity="0.5"/>
<circle cx="208.8" cy="970.1" r="1.1" fill="#fffaf0" opacity="0.52"/>
<circle cx="172.3" cy="1411.9" r="0.5" fill="#fffaf0" opacity="0.46"/>
<circle cx="134.3" cy="1477.8" r="0.8" fill="#f5e6c8" opacity="0.39"/>
<circle cx="156.0" cy="168.3" r="1.1" fill="#fffaf0" opacity="0.7"/>
<circle cx="82.6" cy="256.8" r="0.5" fill="#fffaf0" opacity="0.52"/>
<circle cx="155.1" cy="1058.9" r="1.1" fill="#fffaf0" opacity="0.88"/>
<circle cx="171.9" cy="600.1" r="0.5" fill="#a3b8d1" opacity="0.64"/>
<circle cx="10.1" cy="740.8" r="0.5" fill="#a3b8d1" opacity="0.78"/>
<circle cx="113.3" cy="127.6" r="0.8" fill="#f5e6c8" opacity="0.65"/>
<circle cx="186.4" cy="741.3" r="0.5" fill="#fffaf0" opacity="0.76"/>
<circle cx="57.6" cy="1100.2" r="1.5" fill="#fffaf0" opacity="0.87"/>
<circle cx="233.3" cy="446.4" r="0.5" fill="#f5e6c8" opacity="0.4"/>
<circle cx="94.0" cy="1096.1" r="1.1" fill="#f5e6c8" opacity="0.38"/>
<circle cx="144.4" cy="438.7" r="0.5" fill="#f5e6c8" opacity="0.86"/>
<circle cx="150.0" cy="163.9" r="1.1" fill="#fffaf0" opacity="0.54"/>
<circle cx="133.5" cy="713.6" r="1.1" fill="#f5e6c8" opacity="0.58"/>
<circle cx="185.5" cy="1492.6" r="0.5" fill="#a3b8d1" opacity="0.5"/>
<circle cx="145.5" cy="596.2" r="1.1" fill="#fffaf0" opacity="0.37"/>
<circle cx="16.6" cy="1072.9" r="0.5" fill="#fffaf0" opacity="0.48"/>
<circle cx="60.8" cy="1134.7" r="0.8" fill="#d4a373" opacity="0.53"/>
<circle cx="10.7" cy="905.1" r="0.5" fill="#f5e6c8" opacity="0.37"/>
<circle cx="20.9" cy="118.8" r="0.5" fill="#d4a373" opacity="0.53"/>
<circle cx="69.4" cy="195.7" r="0.8" fill="#a3b8d1" opacity="0.79"/>
<circle cx="11.8" cy="264.1" r="0.5" fill="#fffaf0" opacity="0.89"/>
<circle cx="212.1" cy="358.8" r="0.5" fill="#fffaf0" opacity="0.71"/>
<circle cx="125.4" cy="1320.0" r="0.8" fill="#d4a373" opacity="0.72"/>
<circle cx="239.0" cy="968.1" r="0.5" fill="#fffaf0" opacity="0.43"/>
<circle cx="220.5" cy="914.2" r="0.8" fill="#f5e6c8" opacity="0.82"/>
<circle cx="94.2" cy="937.1" r="0.5" fill="#fffaf0" opacity="0.45"/>
<circle cx="190.7" cy="1058.3" r="0.8" fill="#fffaf0" opacity="0.54"/>
<circle cx="92.3" cy="80.1" r="0.5" fill="#d4a373" opacity="0.85"/>
<circle cx="59.8" cy="797.9" r="0.8" fill="#fffaf0" opacity="0.42"/>
<circle cx="140.8" cy="300.5" r="1.1" fill="#d4a373" opacity="0.31"/>
<circle cx="160.6" cy="635.9" r="0.5" fill="#f5e6c8" opacity="0.82"/>
<circle cx="50.5" cy="507.8" r="0.5" fill="#fffaf0" opacity="0.68"/>
<circle cx="76.3" cy="1126.3" r="0.5" fill="#f5e6c8" opacity="0.39"/>
<circle cx="212.8" cy="1291.6" r="0.8" fill="#d4a373" opacity="0.73"/>
<circle cx="9.3" cy="478.9" r="0.5" fill="#fffaf0" opacity="0.74"/>
<circle cx="183.3" cy="411.9" r="1.1" fill="#f5e6c8" opacity="0.56"/>
<circle cx="150.8" cy="1314.6" r="0.8" fill="#fffaf0" opacity="0.43"/>
<circle cx="135.0" cy="116.0" r="0.8" fill="#a3b8d1" opacity="0.48"/>
<circle cx="89.3" cy="1521.7" r="0.8" fill="#f5e6c8" opacity="0.54"/>
<circle cx="0.1" cy="135.6" r="0.8" fill="#fffaf0" opacity="0.48"/>
<circle cx="169.2" cy="757.1" r="0.8" fill="#d4a373" opacity="0.75"/>
<circle cx="25.4" cy="1325.8" r="0.8" fill="#fffaf0" opacity="0.44"/>
<circle cx="46.4" cy="143.1" r="0.8" fill="#fffaf0" opacity="0.9"/>
<circle cx="66.2" cy="272.6" r="1.5" fill="#fffaf0" opacity="0.63"/>
<circle cx="218.6" cy="669.2" r="1.5" fill="#fffaf0" opacity="0.61"/>
<circle cx="44.8" cy="26.4" r="0.8" fill="#f5e6c8" opacity="0.5"/>
<circle cx="202.0" cy="643.7" r="0.5" fill="#f5e6c8" opacity="0.73"/>
<circle cx="87.1" cy="317.3" r="0.5" fill="#f5e6c8" opacity="0.31"/>
<circle cx="153.8" cy="1238.1" r="0.5" fill="#f5e6c8" opacity="0.74"/>
<circle cx="204.5" cy="880.6" r="0.8" fill="#fffaf0" opacity="0.66"/>
<circle cx="18.5" cy="1311.8" r="0.8" fill="#d4a373" opacity="0.61"/>
<circle cx="43.7" cy="1172.3" r="0.5" fill="#fffaf0" opacity="0.36"/>
<circle cx="6.2" cy="303.0" r="0.8" fill="#fffaf0" opacity="0.59"/>
<circle cx="118.5" cy="1556.9" r="0.8" fill="#fffaf0" opacity="0.48"/>
<circle cx="88.1" cy="369.9" r="0.8" fill="#fffaf0" opacity="0.31"/>
<circle cx="222.6" cy="1210.4" r="0.8" fill="#a3b8d1" opacity="0.8"/>
<circle cx="64.9" cy="1513.5" r="1.1" fill="#fffaf0" opacity="0.6"/>
<circle cx="127.9" cy="794.8" r="1.5" fill="#f5e6c8" opacity="0.45"/>
<circle cx="182.2" cy="961.8" r="0.5" fill="#fffaf0" opacity="0.84"/>
<circle cx="205.9" cy="1421.9" r="0.5" fill="#fffaf0" opacity="0.33"/>
<circle cx="15.9" cy="297.3" r="0.5" fill="#d4a373" opacity="0.64"/>
<circle cx="11.3" cy="1191.1" r="0.5" fill="#fffaf0" opacity="0.73"/>
<circle cx="85.6" cy="1483.8" r="1.1" fill="#fffaf0" opacity="0.33"/>
<circle cx="219.4" cy="283.3" r="0.5" fill="#fffaf0" opacity="0.46"/>
<circle cx="117.5" cy="222.2" r="0.5" fill="#f5e6c8" opacity="0.89"/>
<circle cx="143.3" cy="217.4" r="0.5" fill="#f5e6c8" opacity="0.67"/>
<circle cx="2.5" cy="1542.2" r="0.5" fill="#f5e6c8" opacity="0.46"/>
<circle cx="219.4" cy="559.5" r="0.5" fill="#fffaf0" opacity="0.33"/>
<circle cx="215.4" cy="1504.9" r="0.5" fill="#a3b8d1" opacity="0.82"/>
<circle cx="72.8" cy="1368.7" r="0.5" fill="#d4a373" opacity="0.88"/>
<circle cx="233.0" cy="652.5" r="0.8" fill="#f5e6c8" opacity="0.72"/>
<circle cx="12.4" cy="1066.2" r="0.8" fill="#d4a373" opacity="0.69"/>
<circle cx="231.2" cy="1024.5" r="0.5" fill="#fffaf0" opacity="0.6"/>
<circle cx="53.5" cy="1566.1" r="0.5" fill="#d4a373" opacity="0.58"/>
<circle cx="191.3" cy="71.3" r="0.5" fill="#fffaf0" opacity="0.62"/>
<circle cx="183.6" cy="991.4" r="1.1" fill="#fffaf0" opacity="0.38"/>
<circle cx="73.3" cy="827.9" r="0.5" fill="#fffaf0" opacity="0.61"/>
<circle cx="14.9" cy="1321.8" r="0.5" fill="#fffaf0" opacity="0.84"/>
<circle cx="206.4" cy="975.1" r="0.5" fill="#fffaf0" opacity="0.86"/>
<circle cx="234.5" cy="941.4" r="1.1" fill="#fffaf0" opacity="0.36"/>
<circle cx="75.7" cy="1308.8" r="1.1" fill="#fffaf0" opacity="0.82"/>
<circle cx="17.6" cy="1558.8" r="0.5" fill="#f5e6c8" opacity="0.8"/>
<circle cx="175.5" cy="1131.1" r="0.5" fill="#fffaf0" opacity="0.53"/>
<circle cx="168.8" cy="1088.1" r="1.5" fill="#fffaf0" opacity="0.62"/>
<circle cx="28.8" cy="707.4" r="0.8" fill="#fffaf0" opacity="0.71"/>
<circle cx="47.3" cy="1018.1" r="0.8" fill="#fffaf0" opacity="0.87"/>
<circle cx="174.7" cy="717.7" r="0.8" fill="#fffaf0" opacity="0.71"/>
<circle cx="145.6" cy="1545.6" r="0.5" fill="#a3b8d1" opacity="0.63"/>
<circle cx="210.2" cy="400.9" r="0.8" fill="#fffaf0" opacity="0.85"/>
<circle cx="132.0" cy="471.9" r="1.5" fill="#f5e6c8" opacity="0.41"/>
<circle cx="237.6" cy="1559.9" r="1.1" fill="#a3b8d1" opacity="0.56"/>
<circle cx="205.8" cy="673.0" r="0.5" fill="#fffaf0" opacity="0.5"/>
<circle cx="137.0" cy="666.0" r="1.1" fill="#f5e6c8" opacity="0.3"/>
<circle cx="103.3" cy="1596.7" r="1.5" fill="#f5e6c8" opacity="0.73"/>
<circle cx="91.1" cy="1117.1" r="0.5" fill="#f5e6c8" opacity="0.79"/>
<circle cx="55.5" cy="337.1" r="0.5" fill="#f5e6c8" opacity="0.51"/>
<circle cx="111.4" cy="54.3" r="0.5" fill="#a3b8d1" opacity="0.57"/>
<circle cx="222.2" cy="985.5" r="1.5" fill="#fffaf0" opacity="0.39"/>
<circle cx="36.2" cy="410.1" r="0.5" fill="#d4a373" opacity="0.62"/>
<circle cx="84.8" cy="517.0" r="0.5" fill="#fffaf0" opacity="0.87"/>
<circle cx="235.7" cy="492.6" r="0.8" fill="#f5e6c8" opacity="0.68"/>
<circle cx="200.9" cy="190.7" r="0.5" fill="#f5e6c8" opacity="0.36"/>
<circle cx="118.8" cy="790.3" r="4.3" fill="#ffffff" opacity="0.10"/>
<circle cx="118.8" cy="790.3" r="1.4" fill="#ffffff" opacity="1.0"/>
<circle cx="214.2" cy="71.0" r="6.0" fill="#fff3d6" opacity="0.10"/>
<circle cx="214.2" cy="71.0" r="2.0" fill="#fff3d6" opacity="1.0"/>
<circle cx="156.5" cy="1005.4" r="4.5" fill="#ffffff" opacity="0.10"/>
<circle cx="156.5" cy="1005.4" r="1.5" fill="#ffffff" opacity="1.0"/>
<circle cx="102.0" cy="1353.5" r="4.2" fill="#ffffff" opacity="0.10"/>
<circle cx="102.0" cy="1353.5" r="1.4" fill="#ffffff" opacity="1.0"/>
<circle cx="51.7" cy="329.5" r="4.8" fill="#fff3d6" opacity="0.10"/>
<circle cx="51.7" cy="329.5" r="1.6" fill="#fff3d6" opacity="1.0"/>
<circle cx="175.2" cy="649.2" r="5.5" fill="#ffffff" opacity="0.10"/>
<circle cx="175.2" cy="649.2" r="1.8" fill="#ffffff" opacity="1.0"/>
</svg>
