<?xml version="1.0" encoding="UTF-8"?>
<svg xmlns="http://www.w3.org/2000/svg" viewBox="0 0 1600 1200" preserveAspectRatio="xMidYMid slice">
  <defs>
    <radialGradient id="g" cx="50%" cy="50%" r="50%">
      <stop offset="0%"  stop-color="#0a1628" stop-opacity="0"/>
      <stop offset="60%" stop-color="#0a1628" stop-opacity="0.04"/>
      <stop offset="100%" stop-color="#0a1628" stop-opacity="0.10"/>
    </radialGradient>
  </defs>
  <rect width="1600" height="1200" fill="url(#g)"/>
  <circle cx="1023.1" cy="30.0" r="0.6" fill="#0a1628" opacity="0.27"/>
  <circle cx="164.0" cy="888.8" r="0.7" fill="#0a1628" opacity="0.21"/>
  <circle cx="47.7" cy="262.4" r="0.7" fill="#0a1628" opacity="0.4"/>
  <circle cx="1145.6" cy="841.6" r="0.6" fill="#0a1628" opacity="0.26"/>
  <circle cx="1295.1" cy="7.8" r="1.0" fill="#0a1628" opacity="0.24"/>
  <circle cx="444.6" cy="258.4" r="1.0" fill="#0a1628" opacity="0.3"/>
  <circle cx="154.7" cy="1017.0" r="0.7" fill="#0a1628" opacity="0.28"/>
  <circle cx="735.1" cy="149.8" r="0.6" fill="#0a1628" opacity="0.21"/>
  <circle cx="1005.8" cy="1062.5" r="0.6" fill="#d97706" opacity="0.39"/>
  <circle cx="73.3" cy="273.5" r="0.6" fill="#5b6b85" opacity="0.54"/>
  <circle cx="1386.4" cy="456.2" r="0.6" fill="#0a1628" opacity="0.42"/>
  <circle cx="592.3" cy="251.4" r="0.6" fill="#d97706" opacity="0.44"/>
  <circle cx="114.2" cy="762.0" r="0.7" fill="#0a1628" opacity="0.45"/>
  <circle cx="607.1" cy="1187.4" r="0.8" fill="#0a1628" opacity="0.43"/>
  <circle cx="518.9" cy="922.0" r="0.4" fill="#0a1628" opacity="0.26"/>
  <circle cx="504.7" cy="321.3" r="0.5" fill="#0a1628" opacity="0.52"/>
  <circle cx="1148.7" cy="255.2" r="0.6" fill="#5b6b85" opacity="0.33"/>
  <circle cx="734.2" cy="317.9" r="0.5" fill="#0a1628" opacity="0.46"/>
  <circle cx="1195.2" cy="514.1" r="0.7" fill="#0a1628" opacity="0.33"/>
  <circle cx="1596.1" cy="611.4" r="0.4" fill="#5b6b85" opacity="0.46"/>
  <circle cx="244.5" cy="192.0" r="0.8" fill="#0a1628" opacity="0.34"/>
  <circle cx="610.6" cy="1195.3" r="0.7" fill="#0a1628" opacity="0.27"/>
  <circle cx="1507.9" cy="816.3" r="0.4" fill="#0a1628" opacity="0.43"/>
  <circle cx="426.9" cy="769.2" r="0.4" fill="#0a1628" opacity="0.29"/>
  <circle cx="5.2" cy="866.5" r="0.8" fill="#0a1628" opacity="0.28"/>
  <circle cx="285.8" cy="1095.2" r="1.0" fill="#5b6b85" opacity="0.41"/>
  <circle cx="812.3" cy="238.7" r="0.6" fill="#0a1628" opacity="0.46"/>
  <circle cx="1245.8" cy="636.4" r="0.4" fill="#0a1628" opacity="0.4"/>
  <circle cx="179.0" cy="435.6" r="1.0" fill="#0a1628" opacity="0.48"/>
  <circle cx="385.4" cy="680.8" r="0.4" fill="#0a1628" opacity="0.21"/>
  <circle cx="110.7" cy="912.7" r="1.0" fill="#0a1628" opacity="0.23"/>
  <circle cx="1515.0" cy="198.2" r="0.7" fill="#0a1628" opacity="0.5"/>
  <circle cx="338.9" cy="647.2" r="0.8" fill="#d97706" opacity="0.44"/>
  <circle cx="638.4" cy="806.0" r="0.6" fill="#0a1628" opacity="0.34"/>
  <circle cx="193.6" cy="269.6" r="0.6" fill="#0a1628" opacity="0.19"/>
  <circle cx="941.5" cy="8.6" r="0.8" fill="#0a1628" opacity="0.41"/>
  <circle cx="1448.7" cy="1031.6" r="0.4" fill="#0a1628" opacity="0.37"/>
  <circle cx="776.7" cy="647.1" r="0.8" fill="#0a1628" opacity="0.53"/>
  <circle cx="756.3" cy="941.5" r="1.0" fill="#0a1628" opacity="0.33"/>
  <circle cx="1054.4" cy="425.2" r="0.6" fill="#d97706" opacity="0.35"/>
  <circle cx="1077.4" cy="1181.0" r="0.4" fill="#d97706" opacity="0.2"/>
  <circle cx="1280.9" cy="131.1" r="0.5" fill="#0a1628" opacity="0.25"/>
  <circle cx="675.0" cy="334.3" r="0.5" fill="#0a1628" opacity="0.5"/>
  <circle cx="1292.8" cy="1027.2" r="0.4" fill="#5b6b85" opacity="0.2"/>
  <circle cx="1337.6" cy="1162.8" r="1.0" fill="#0a1628" opacity="0.49"/>
  <circle cx="777.0" cy="256.5" r="0.6" fill="#0a1628" opacity="0.51"/>
  <circle cx="3.4" cy="468.5" r="1.0" fill="#0a1628" opacity="0.47"/>
  <circle cx="1114.5" cy="876.6" r="1.0" fill="#d97706" opacity="0.39"/>
  <circle cx="247.7" cy="356.0" r="0.4" fill="#0a1628" opacity="0.39"/>
  <circle cx="1196.8" cy="68.6" r="0.7" fill="#5b6b85" opacity="0.36"/>
  <circle cx="849.8" cy="68.3" r="0.7" fill="#0a1628" opacity="0.21"/>
  <circle cx="952.1" cy="810.3" r="0.5" fill="#5b6b85" opacity="0.33"/>
  <circle cx="911.5" cy="694.7" r="0.4" fill="#0a1628" opacity="0.41"/>
  <circle cx="933.9" cy="627.3" r="0.6" fill="#d97706" opacity="0.26"/>
  <circle cx="381.9" cy="474.9" r="0.8" fill="#0a1628" opacity="0.42"/>
  <circle cx="1486.4" cy="1122.9" r="0.4" fill="#5b6b85" opacity="0.35"/>
  <circle cx="1593.8" cy="87.9" r="0.5" fill="#0a1628" opacity="0.37"/>
  <circle cx="558.4" cy="82.5" r="0.5" fill="#0a1628" opacity="0.32"/>
  <circle cx="1334.0" cy="844.2" r="0.7" fill="#5b6b85" opacity="0.54"/>
  <circle cx="846.3" cy="801.4" r="0.7" fill="#0a1628" opacity="0.29"/>
  <circle cx="1502.3" cy="161.1" r="0.4" fill="#5b6b85" opacity="0.51"/>
  <circle cx="248.7" cy="338.1" r="0.5" fill="#0a1628" opacity="0.45"/>
  <circle cx="1014.8" cy="316.8" r="0.6" fill="#5b6b85" opacity="0.27"/>
  <circle cx="81.3" cy="761.1" r="1.0" fill="#0a1628" opacity="0.28"/>
  <circle cx="1233.8" cy="764.5" r="0.6" fill="#0a1628" opacity="0.24"/>
  <circle cx="1129.1" cy="673.1" r="0.4" fill="#5b6b85" opacity="0.21"/>
  <circle cx="1446.3" cy="654.7" r="1.0" fill="#0a1628" opacity="0.32"/>
  <circle cx="687.7" cy="50.2" r="0.6" fill="#5b6b85" opacity="0.51"/>
  <circle cx="1377.1" cy="1078.7" r="0.5" fill="#d97706" opacity="0.43"/>
  <circle cx="565.9" cy="671.9" r="1.0" fill="#0a1628" opacity="0.33"/>
  <circle cx="247.3" cy="1115.9" r="1.0" fill="#5b6b85" opacity="0.24"/>
  <circle cx="283.3" cy="494.8" r="0.5" fill="#0a1628" opacity="0.45"/>
  <circle cx="1489.3" cy="962.7" r="1.0" fill="#0a1628" opacity="0.45"/>
  <circle cx="254.7" cy="841.5" r="0.6" fill="#5b6b85" opacity="0.5"/>
  <circle cx="355.9" cy="979.9" r="0.6" fill="#5b6b85" opacity="0.31"/>
  <circle cx="1394.1" cy="267.5" r="0.8" fill="#0a1628" opacity="0.25"/>
  <circle cx="1383.0" cy="1160.3" r="0.6" fill="#0a1628" opacity="0.31"/>
  <circle cx="1087.2" cy="1012.4" r="0.6" fill="#0a1628" opacity="0.53"/>
  <circle cx="1552.6" cy="214.3" r="0.6" fill="#0a1628" opacity="0.19"/>
  <circle cx="553.1" cy="943.7" r="0.6" fill="#0a1628" opacity="0.4"/>
  <circle cx="616.3" cy="691.9" r="0.6" fill="#0a1628" opacity="0.2"/>
  <circle cx="831.9" cy="967.8" r="0.8" fill="#5b6b85" opacity="0.45"/>
  <circle cx="1073.0" cy="437.1" r="0.4" fill="#5b6b85" opacity="0.53"/>
  <circle cx="997.0" cy="796.1" r="0.4" fill="#0a1628" opacity="0.45"/>
  <circle cx="494.9" cy="490.1" r="0.6" fill="#0a1628" opacity="0.44"/>
  <circle cx="306.9" cy="797.9" r="0.6" fill="#5b6b85" opacity="0.43"/>
  <circle cx="984.8" cy="361.1" r="0.7" fill="#0a1628" opacity="0.49"/>
  <circle cx="336.3" cy="942.9" r="0.7" fill="#0a1628" opacity="0.42"/>
  <circle cx="707.5" cy="256.4" r="0.6" fill="#5b6b85" opacity="0.47"/>
  <circle cx="1177.5" cy="790.6" r="0.6" fill="#0a1628" opacity="0.37"/>
  <circle cx="536.3" cy="982.1" r="1.0" fill="#0a1628" opacity="0.27"/>
  <circle cx="1290.5" cy="176.8" r="0.4" fill="#0a1628" opacity="0.27"/>
  <circle cx="1359.6" cy="87.4" r="0.6" fill="#0a1628" opacity="0.51"/>
  <circle cx="1149.4" cy="460.8" r="0.6" fill="#0a1628" opacity="0.27"/>
  <circle cx="8.9" cy="901.2" r="1.0" fill="#5b6b85" opacity="0.51"/>
  <circle cx="350.1" cy="964.9" r="0.8" fill="#0a1628" opacity="0.37"/>
  <circle cx="398.7" cy="1018.0" r="0.6" fill="#0a1628" opacity="0.23"/>
  <circle cx="849.8" cy="670.7" r="0.6" fill="#5b6b85" opacity="0.53"/>
  <circle cx="980.2" cy="863.1" r="0.7" fill="#5b6b85" opacity="0.34"/>
  <circle cx="713.5" cy="191.0" r="1.0" fill="#0a1628" opacity="0.36"/>
  <circle cx="395.6" cy="765.2" r="1.0" fill="#0a1628" opacity="0.47"/>
  <circle cx="382.8" cy="527.8" r="0.8" fill="#0a1628" opacity="0.29"/>
  <circle cx="511.5" cy="648.2" r="0.5" fill="#0a1628" opacity="0.24"/>
  <circle cx="244.5" cy="256.7" r="0.6" fill="#0a1628" opacity="0.33"/>
  <circle cx="665.2" cy="248.2" r="0.6" fill="#5b6b85" opacity="0.32"/>
  <circle cx="1513.7" cy="23.4" r="1.0" fill="#0a1628" opacity="0.39"/>
  <circle cx="1508.4" cy="358.3" r="0.6" fill="#5b6b85" opacity="0.5"/>
  <circle cx="670.4" cy="897.0" r="0.7" fill="#5b6b85" opacity="0.48"/>
  <circle cx="781.2" cy="327.5" r="0.6" fill="#0a1628" opacity="0.19"/>
  <circle cx="1086.6" cy="485.2" r="0.5" fill="#5b6b85" opacity="0.49"/>
  <circle cx="1569.2" cy="640.9" r="0.6" fill="#0a1628" opacity="0.4"/>
  <circle cx="134.3" cy="514.3" r="1.0" fill="#0a1628" opacity="0.35"/>
  <circle cx="606.6" cy="254.0" r="0.6" fill="#5b6b85" opacity="0.3"/>
  <circle cx="445.2" cy="1141.4" r="0.6" fill="#0a1628" opacity="0.27"/>
  <circle cx="31.0" cy="647.3" r="0.6" fill="#0a1628" opacity="0.26"/>
  <circle cx="1531.7" cy="48.3" r="0.4" fill="#0a1628" opacity="0.53"/>
  <circle cx="32.6" cy="182.9" r="0.5" fill="#0a1628" opacity="0.36"/>
  <circle cx="1516.4" cy="558.0" r="0.6" fill="#0a1628" opacity="0.46"/>
  <circle cx="971.6" cy="897.5" r="0.4" fill="#0a1628" opacity="0.47"/>
  <circle cx="497.7" cy="694.4" r="0.6" fill="#5b6b85" opacity="0.39"/>
  <circle cx="600.5" cy="1129.8" r="0.5" fill="#d97706" opacity="0.21"/>
  <circle cx="1003.6" cy="122.3" r="1.0" fill="#d97706" opacity="0.29"/>
  <circle cx="1288.8" cy="955.5" r="0.7" fill="#0a1628" opacity="0.47"/>
  <circle cx="685.4" cy="444.7" r="0.7" fill="#0a1628" opacity="0.42"/>
  <circle cx="672.1" cy="588.2" r="0.6" fill="#0a1628" opacity="0.54"/>
  <circle cx="1325.9" cy="848.8" r="0.6" fill="#0a1628" opacity="0.25"/>
  <circle cx="1040.7" cy="739.1" r="0.7" fill="#0a1628" opacity="0.47"/>
  <circle cx="1321.2" cy="711.0" r="0.6" fill="#5b6b85" opacity="0.5"/>
  <circle cx="138.7" cy="1058.0" r="0.5" fill="#0a1628" opacity="0.46"/>
  <circle cx="1069.1" cy="403.7" r="0.6" fill="#0a1628" opacity="0.49"/>
  <circle cx="339.4" cy="957.4" r="0.6" fill="#0a1628" opacity="0.28"/>
  <circle cx="1408.2" cy="666.9" r="0.7" fill="#0a1628" opacity="0.53"/>
  <circle cx="1152.1" cy="586.3" r="1.0" fill="#0a1628" opacity="0.27"/>
  <circle cx="1138.9" cy="537.8" r="0.4" fill="#0a1628" opacity="0.21"/>
  <circle cx="1106.9" cy="367.4" r="0.7" fill="#0a1628" opacity="0.32"/>
  <circle cx="550.0" cy="1196.0" r="0.7" fill="#d97706" opacity="0.3"/>
  <circle cx="433.5" cy="301.7" r="0.4" fill="#0a1628" opacity="0.45"/>
  <circle cx="1188.6" cy="1141.1" r="0.8" fill="#0a1628" opacity="0.25"/>
  <circle cx="774.7" cy="869.5" r="1.0" fill="#0a1628" opacity="0.37"/>
  <circle cx="160.8" cy="232.9" r="0.5" fill="#0a1628" opacity="0.31"/>
  <circle cx="1132.8" cy="151.9" r="0.4" fill="#0a1628" opacity="0.54"/>
  <circle cx="1115.9" cy="151.5" r="1.0" fill="#0a1628" opacity="0.46"/>
  <circle cx="19.6" cy="341.2" r="0.6" fill="#0a1628" opacity="0.34"/>
  <circle cx="82.2" cy="1129.3" r="0.6" fill="#0a1628" opacity="0.22"/>
  <circle cx="786.8" cy="692.4" r="0.8" fill="#0a1628" opacity="0.2"/>
  <circle cx="900.5" cy="364.6" r="0.5" fill="#5b6b85" opacity="0.22"/>
  <circle cx="970.1" cy="948.9" r="0.5" fill="#0a1628" opacity="0.47"/>
  <circle cx="1453.6" cy="356.8" r="0.7" fill="#0a1628" opacity="0.55"/>
  <circle cx="993.6" cy="731.6" r="0.8" fill="#5b6b85" opacity="0.22"/>
  <circle cx="1000.8" cy="317.6" r="0.4" fill="#0a1628" opacity="0.24"/>
  <circle cx="120.1" cy="3.2" r="0.6" fill="#0a1628" opacity="0.44"/>
  <circle cx="52.2" cy="345.7" r="0.6" fill="#0a1628" opacity="0.44"/>
  <circle cx="1099.8" cy="1108.7" r="1.0" fill="#0a1628" opacity="0.47"/>
  <circle cx="1286.2" cy="237.4" r="0.4" fill="#0a1628" opacity="0.38"/>
  <circle cx="1453.5" cy="992.0" r="0.4" fill="#5b6b85" opacity="0.2"/>
  <circle cx="952.1" cy="989.1" r="0.6" fill="#0a1628" opacity="0.34"/>
  <circle cx="486.5" cy="483.0" r="0.6" fill="#0a1628" opacity="0.37"/>
  <circle cx="128.7" cy="47.8" r="0.6" fill="#0a1628" opacity="0.45"/>
  <circle cx="41.4" cy="274.7" r="0.8" fill="#0a1628" opacity="0.49"/>
  <circle cx="1521.3" cy="1199.5" r="0.8" fill="#0a1628" opacity="0.48"/>
  <circle cx="1221.0" cy="210.2" r="0.7" fill="#5b6b85" opacity="0.42"/>
  <circle cx="290.4" cy="702.4" r="0.8" fill="#5b6b85" opacity="0.48"/>
  <circle cx="752.0" cy="490.0" r="0.6" fill="#5b6b85" opacity="0.43"/>
  <circle cx="527.7" cy="832.4" r="0.6" fill="#0a1628" opacity="0.43"/>
  <circle cx="1216.8" cy="44.0" r="0.4" fill="#0a1628" opacity="0.3"/>
  <circle cx="1552.3" cy="485.0" r="0.7" fill="#0a1628" opacity="0.49"/>
  <circle cx="1391.0" cy="554.4" r="0.4" fill="#0a1628" opacity="0.25"/>
  <circle cx="1210.3" cy="750.5" r="1.0" fill="#0a1628" opacity="0.2"/>
  <circle cx="209.6" cy="345.6" r="0.8" fill="#0a1628" opacity="0.36"/>
  <circle cx="1008.0" cy="959.2" r="0.8" fill="#0a1628" opacity="0.24"/>
  <circle cx="883.6" cy="111.9" r="1.0" fill="#0a1628" opacity="0.52"/>
  <circle cx="187.9" cy="998.6" r="0.6" fill="#0a1628" opacity="0.53"/>
  <circle cx="1128.7" cy="498.6" r="0.6" fill="#0a1628" opacity="0.54"/>
  <circle cx="882.0" cy="460.3" r="0.7" fill="#5b6b85" opacity="0.37"/>
  <circle cx="1382.4" cy="331.5" r="1.0" fill="#0a1628" opacity="0.5"/>
  <circle cx="1260.3" cy="320.6" r="0.4" fill="#0a1628" opacity="0.28"/>
  <circle cx="939.1" cy="1198.7" r="0.6" fill="#0a1628" opacity="0.5"/>
  <circle cx="774.9" cy="398.9" r="1.0" fill="#0a1628" opacity="0.38"/>
  <circle cx="514.8" cy="226.4" r="0.8" fill="#0a1628" opacity="0.27"/>
  <circle cx="1369.6" cy="492.9" r="0.6" fill="#d97706" opacity="0.46"/>
  <circle cx="1298.3" cy="463.3" r="0.8" fill="#0a1628" opacity="0.47"/>
  <circle cx="243.4" cy="1157.8" r="0.5" fill="#0a1628" opacity="0.37"/>
  <circle cx="1391.5" cy="1049.0" r="0.6" fill="#5b6b85" opacity="0.22"/>
  <circle cx="24.6" cy="173.0" r="1.0" fill="#0a1628" opacity="0.42"/>
  <circle cx="751.2" cy="1163.0" r="0.6" fill="#0a1628" opacity="0.41"/>
  <circle cx="128.5" cy="394.3" r="0.8" fill="#0a1628" opacity="0.5"/>
  <circle cx="506.7" cy="862.5" r="1.0" fill="#0a1628" opacity="0.36"/>
  <circle cx="987.9" cy="281.7" r="0.8" fill="#5b6b85" opacity="0.52"/>
  <circle cx="1194.8" cy="520.8" r="0.4" fill="#d97706" opacity="0.46"/>
  <circle cx="160.8" cy="199.6" r="0.6" fill="#0a1628" opacity="0.51"/>
  <circle cx="1273.8" cy="352.0" r="0.6" fill="#0a1628" opacity="0.34"/>
  <circle cx="659.3" cy="818.2" r="0.5" fill="#0a1628" opacity="0.24"/>
  <circle cx="1393.3" cy="743.7" r="0.5" fill="#0a1628" opacity="0.36"/>
  <circle cx="371.5" cy="765.5" r="0.6" fill="#0a1628" opacity="0.27"/>
  <circle cx="1287.4" cy="1081.5" r="0.8" fill="#0a1628" opacity="0.38"/>
  <circle cx="1512.4" cy="1185.2" r="0.6" fill="#0a1628" opacity="0.42"/>
  <circle cx="400.2" cy="1014.4" r="0.5" fill="#5b6b85" opacity="0.55"/>
  <circle cx="170.6" cy="457.6" r="0.6" fill="#5b6b85" opacity="0.39"/>
  <circle cx="472.4" cy="1173.5" r="0.8" fill="#0a1628" opacity="0.33"/>
  <circle cx="1384.1" cy="934.0" r="0.4" fill="#5b6b85" opacity="0.52"/>
  <circle cx="1332.5" cy="1083.5" r="1.0" fill="#0a1628" opacity="0.48"/>
  <circle cx="563.7" cy="763.9" r="0.7" fill="#5b6b85" opacity="0.27"/>
  <circle cx="1228.0" cy="817.0" r="0.5" fill="#5b6b85" opacity="0.41"/>
  <circle cx="1034.1" cy="370.7" r="0.6" fill="#0a1628" opacity="0.19"/>
  <circle cx="210.3" cy="1091.6" r="0.6" fill="#0a1628" opacity="0.46"/>
  <circle cx="211.5" cy="647.3" r="0.6" fill="#5b6b85" opacity="0.38"/>
  <circle cx="1328.8" cy="308.4" r="1.0" fill="#5b6b85" opacity="0.53"/>
  <circle cx="472.2" cy="1044.5" r="1.0" fill="#5b6b85" opacity="0.22"/>
  <circle cx="225.2" cy="1159.8" r="1.0" fill="#d97706" opacity="0.43"/>
  <circle cx="635.9" cy="1014.9" r="0.7" fill="#5b6b85" opacity="0.32"/>
  <circle cx="22.3" cy="643.9" r="0.6" fill="#5b6b85" opacity="0.32"/>
  <circle cx="419.5" cy="457.2" r="0.8" fill="#0a1628" opacity="0.53"/>
  <circle cx="374.1" cy="30.0" r="0.7" fill="#0a1628" opacity="0.3"/>
  <circle cx="1036.2" cy="762.5" r="0.6" fill="#0a1628" opacity="0.52"/>
  <circle cx="653.3" cy="167.7" r="0.4" fill="#0a1628" opacity="0.29"/>
  <circle cx="155.5" cy="1064.7" r="0.5" fill="#0a1628" opacity="0.32"/>
  <circle cx="1519.0" cy="835.8" r="0.7" fill="#5b6b85" opacity="0.34"/>
  <circle cx="247.2" cy="497.9" r="0.4" fill="#0a1628" opacity="0.49"/>
  <circle cx="1502.5" cy="335.7" r="0.8" fill="#0a1628" opacity="0.32"/>
  <circle cx="1520.9" cy="1026.5" r="0.4" fill="#0a1628" opacity="0.54"/>
</svg>
