<svg xmlns="http://www.w3.org/2000/svg" viewBox="0 0 2400 1600" preserveAspectRatio="xMidYMid slice">
<defs>
<radialGradient id="bg" cx="50%" cy="40%" r="80%">
  <stop offset="0%"  stop-color="#1a1209" stop-opacity="1"/>
  <stop offset="100%" stop-color="#0a0805" stop-opacity="1"/>
</radialGradient>
<radialGradient id="neb" cx="30%" cy="60%" r="50%">
  <stop offset="0%"  stop-color="#d4a373" stop-opacity="0.10"/>
  <stop offset="100%" stop-color="#d4a373" stop-opacity="0"/>
</radialGradient>
</defs>
<rect width="2400" height="1600" fill="url(#bg)"/>
<rect width="2400" height="1600" fill="url(#neb)"/>
<circle cx="1085.7" cy="895.6" r="0.9" fill="#fffaf0" opacity="0.53"/>
<circle cx="1409.7" cy="295.5" r="0.4" fill="#f5e6c8" opacity="0.63"/>
<circle cx="225.9" cy="485.4" r="0.4" fill="#f5e6c8" opacity="0.74"/>
<circle cx="100.5" cy="1571.5" r="1.3" fill="#f5e6c8" opacity="0.64"/>
<circle cx="378.0" cy="24.0" r="0.4" fill="#fffaf0" opacity="0.29"/>
<circle cx="580.7" cy="48.1" r="0.4" fill="#d4a373" opacity="0.51"/>
<circle cx="1245.9" cy="1024.5" r="0.4" fill="#fffaf0" opacity="0.65"/>
<circle cx="667.6" cy="1596.2" r="1.3" fill="#f5e6c8" opacity="0.75"/>
<circle cx="756.7" cy="367.5" r="0.4" fill="#f5e6c8" opacity="0.29"/>
<circle cx="961.0" cy="1354.5" r="0.4" fill="#d4a373" opacity="0.82"/>
<circle cx="1.3" cy="335.5" r="0.9" fill="#a3b8d1" opacity="0.53"/>
<circle cx="953.8" cy="116.9" r="0.6" fill="#fffaf0" opacity="0.72"/>
<circle cx="209.1" cy="532.1" r="1.3" fill="#fffaf0" opacity="0.7"/>
<circle cx="591.3" cy="161.7" r="0.4" fill="#fffaf0" opacity="0.73"/>
<circle cx="1342.3" cy="715.9" r="0.4" fill="#fffaf0" opacity="0.69"/>
<circle cx="1544.9" cy="186.4" r="0.4" fill="#fffaf0" opacity="0.38"/>
<circle cx="2330.2" cy="1285.5" r="0.4" fill="#fffaf0" opacity="0.78"/>
<circle cx="946.3" cy="1367.0" r="0.6" fill="#a3b8d1" opacity="0.31"/>
<circle cx="511.8" cy="413.2" r="0.6" fill="#fffaf0" opacity="0.45"/>
<circle cx="176.2" cy="144.2" r="0.6" fill="#f5e6c8" opacity="0.4"/>
<circle cx="892.1" cy="725.1" r="0.9" fill="#f5e6c8" opacity="0.54"/>
<circle cx="2079.7" cy="292.5" r="0.4" fill="#d4a373" opacity="0.8"/>
<circle cx="598.8" cy="303.7" r="0.6" fill="#fffaf0" opacity="0.81"/>
<circle cx="2280.3" cy="1411.5" r="0.6" fill="#fffaf0" opacity="0.5"/>
<circle cx="92.9" cy="1540.3" r="0.4" fill="#fffaf0" opacity="0.67"/>
<circle cx="1976.9" cy="954.3" r="0.4" fill="#f5e6c8" opacity="0.36"/>
<circle cx="165.1" cy="365.4" r="0.6" fill="#f5e6c8" opacity="0.76"/>
<circle cx="672.5" cy="1467.8" r="0.4" fill="#fffaf0" opacity="0.26"/>
<circle cx="1069.7" cy="96.7" r="0.4" fill="#f5e6c8" opacity="0.47"/>
<circle cx="315.8" cy="579.4" r="0.9" fill="#f5e6c8" opacity="0.84"/>
<circle cx="1658.9" cy="935.1" r="0.4" fill="#fffaf0" opacity="0.27"/>
<circle cx="2184.5" cy="1121.6" r="1.3" fill="#f5e6c8" opacity="0.26"/>
<circle cx="1157.4" cy="1168.8" r="0.4" fill="#fffaf0" opacity="0.85"/>
<circle cx="1310.6" cy="1179.2" r="0.9" fill="#f5e6c8" opacity="0.69"/>
<circle cx="1903.8" cy="1464.0" r="0.4" fill="#d4a373" opacity="0.66"/>
<circle cx="2090.6" cy="667.4" r="0.6" fill="#f5e6c8" opacity="0.77"/>
<circle cx="1499.9" cy="611.7" r="0.6" fill="#fffaf0" opacity="0.62"/>
<circle cx="1534.6" cy="1589.3" r="0.9" fill="#fffaf0" opacity="0.69"/>
<circle cx="1764.1" cy="929.5" r="0.4" fill="#fffaf0" opacity="0.75"/>
<circle cx="1800.5" cy="47.7" r="0.6" fill="#fffaf0" opacity="0.54"/>
<circle cx="1676.0" cy="795.6" r="0.6" fill="#fffaf0" opacity="0.8"/>
<circle cx="27.1" cy="481.7" r="0.6" fill="#fffaf0" opacity="0.37"/>
<circle cx="2173.7" cy="1056.0" r="0.4" fill="#fffaf0" opacity="0.79"/>
<circle cx="1598.2" cy="317.6" r="0.4" fill="#d4a373" opacity="0.73"/>
<circle cx="2112.6" cy="615.1" r="0.6" fill="#fffaf0" opacity="0.44"/>
<circle cx="1191.5" cy="1339.4" r="0.9" fill="#a3b8d1" opacity="0.68"/>
<circle cx="664.3" cy="270.6" r="0.4" fill="#fffaf0" opacity="0.42"/>
<circle cx="993.6" cy="1001.2" r="0.4" fill="#d4a373" opacity="0.44"/>
<circle cx="2356.9" cy="724.0" r="0.4" fill="#d4a373" opacity="0.27"/>
<circle cx="99.6" cy="1133.8" r="0.6" fill="#f5e6c8" opacity="0.44"/>
<circle cx="45.9" cy="217.4" r="0.4" fill="#d4a373" opacity="0.26"/>
<circle cx="569.8" cy="225.4" r="0.4" fill="#fffaf0" opacity="0.63"/>
<circle cx="1511.9" cy="1048.1" r="0.6" fill="#f5e6c8" opacity="0.83"/>
<circle cx="478.4" cy="760.2" r="0.4" fill="#fffaf0" opacity="0.26"/>
<circle cx="1714.0" cy="286.6" r="0.4" fill="#f5e6c8" opacity="0.46"/>
<circle cx="1249.0" cy="983.1" r="0.6" fill="#f5e6c8" opacity="0.49"/>
<circle cx="2175.0" cy="139.5" r="0.9" fill="#fffaf0" opacity="0.68"/>
<circle cx="1088.5" cy="1000.9" r="0.9" fill="#f5e6c8" opacity="0.48"/>
<circle cx="2110.4" cy="1274.8" r="0.9" fill="#f5e6c8" opacity="0.53"/>
<circle cx="491.7" cy="1155.1" r="0.6" fill="#f5e6c8" opacity="0.63"/>
<circle cx="511.9" cy="1440.0" r="1.3" fill="#fffaf0" opacity="0.84"/>
<circle cx="1897.9" cy="512.6" r="0.9" fill="#fffaf0" opacity="0.76"/>
<circle cx="198.7" cy="705.4" r="0.6" fill="#fffaf0" opacity="0.71"/>
<circle cx="68.2" cy="1294.6" r="0.4" fill="#fffaf0" opacity="0.73"/>
<circle cx="804.0" cy="1260.6" r="0.4" fill="#fffaf0" opacity="0.34"/>
<circle cx="1736.6" cy="1344.0" r="0.6" fill="#fffaf0" opacity="0.82"/>
<circle cx="2278.0" cy="137.6" r="0.4" fill="#fffaf0" opacity="0.57"/>
<circle cx="1749.2" cy="1022.2" r="0.4" fill="#f5e6c8" opacity="0.76"/>
<circle cx="748.1" cy="609.9" r="0.9" fill="#fffaf0" opacity="0.79"/>
<circle cx="2041.9" cy="1549.5" r="0.4" fill="#fffaf0" opacity="0.59"/>
<circle cx="1286.2" cy="805.1" r="0.6" fill="#a3b8d1" opacity="0.27"/>
<circle cx="1238.4" cy="640.9" r="0.6" fill="#fffaf0" opacity="0.59"/>
<circle cx="1658.4" cy="105.4" r="0.4" fill="#a3b8d1" opacity="0.5"/>
<circle cx="2216.2" cy="430.7" r="0.4" fill="#fffaf0" opacity="0.33"/>
<circle cx="1957.7" cy="1440.9" r="0.4" fill="#fffaf0" opacity="0.44"/>
<circle cx="1482.9" cy="1480.4" r="0.4" fill="#fffaf0" opacity="0.72"/>
<circle cx="465.9" cy="363.6" r="0.6" fill="#fffaf0" opacity="0.44"/>
<circle cx="1487.4" cy="167.8" r="0.6" fill="#fffaf0" opacity="0.32"/>
<circle cx="601.3" cy="316.4" r="0.4" fill="#fffaf0" opacity="0.51"/>
<circle cx="992.2" cy="847.0" r="0.4" fill="#f5e6c8" opacity="0.37"/>
<circle cx="1532.3" cy="847.4" r="0.9" fill="#d4a373" opacity="0.62"/>
<circle cx="558.4" cy="1185.2" r="0.6" fill="#fffaf0" opacity="0.79"/>
<circle cx="756.0" cy="1476.4" r="0.4" fill="#d4a373" opacity="0.85"/>
<circle cx="321.4" cy="383.0" r="0.6" fill="#fffaf0" opacity="0.41"/>
<circle cx="1997.2" cy="674.6" r="0.6" fill="#fffaf0" opacity="0.33"/>
<circle cx="1644.5" cy="28.4" r="0.4" fill="#d4a373" opacity="0.66"/>
<circle cx="2324.1" cy="184.7" r="0.4" fill="#fffaf0" opacity="0.7"/>
<circle cx="1645.6" cy="302.4" r="0.4" fill="#fffaf0" opacity="0.31"/>
<circle cx="1324.0" cy="823.7" r="0.6" fill="#fffaf0" opacity="0.34"/>
<circle cx="489.4" cy="1344.3" r="1.3" fill="#fffaf0" opacity="0.81"/>
<circle cx="148.7" cy="1522.4" r="0.4" fill="#fffaf0" opacity="0.71"/>
<circle cx="1120.7" cy="824.5" r="0.4" fill="#fffaf0" opacity="0.61"/>
<circle cx="1682.5" cy="1350.8" r="0.4" fill="#f5e6c8" opacity="0.52"/>
<circle cx="972.7" cy="312.2" r="0.4" fill="#fffaf0" opacity="0.56"/>
<circle cx="2143.6" cy="1282.7" r="0.6" fill="#f5e6c8" opacity="0.77"/>
<circle cx="970.8" cy="959.4" r="0.4" fill="#d4a373" opacity="0.84"/>
<circle cx="619.8" cy="1458.1" r="0.6" fill="#d4a373" opacity="0.72"/>
<circle cx="973.5" cy="1434.5" r="0.9" fill="#f5e6c8" opacity="0.67"/>
<circle cx="1836.5" cy="649.2" r="0.6" fill="#fffaf0" opacity="0.29"/>
<circle cx="1125.2" cy="17.0" r="0.4" fill="#f5e6c8" opacity="0.63"/>
<circle cx="557.1" cy="1511.5" r="0.6" fill="#f5e6c8" opacity="0.45"/>
<circle cx="1367.0" cy="852.9" r="0.4" fill="#f5e6c8" opacity="0.85"/>
<circle cx="1683.0" cy="1218.8" r="1.3" fill="#f5e6c8" opacity="0.26"/>
<circle cx="1773.1" cy="410.6" r="0.4" fill="#fffaf0" opacity="0.28"/>
<circle cx="901.6" cy="157.5" r="0.4" fill="#f5e6c8" opacity="0.79"/>
<circle cx="1218.8" cy="1547.4" r="0.6" fill="#f5e6c8" opacity="0.85"/>
<circle cx="1942.9" cy="121.9" r="0.6" fill="#fffaf0" opacity="0.71"/>
<circle cx="2232.4" cy="255.9" r="0.4" fill="#fffaf0" opacity="0.35"/>
<circle cx="1466.8" cy="93.7" r="0.9" fill="#fffaf0" opacity="0.5"/>
<circle cx="1434.8" cy="584.9" r="0.4" fill="#f5e6c8" opacity="0.64"/>
<circle cx="680.5" cy="1146.6" r="0.4" fill="#fffaf0" opacity="0.26"/>
<circle cx="102.7" cy="250.5" r="0.6" fill="#d4a373" opacity="0.48"/>
<circle cx="1796.1" cy="80.3" r="1.3" fill="#fffaf0" opacity="0.82"/>
<circle cx="2173.3" cy="687.2" r="0.4" fill="#fffaf0" opacity="0.83"/>
<circle cx="1256.1" cy="1499.6" r="0.6" fill="#a3b8d1" opacity="0.53"/>
<circle cx="1960.1" cy="965.8" r="0.4" fill="#fffaf0" opacity="0.62"/>
<circle cx="488.8" cy="83.3" r="0.4" fill="#fffaf0" opacity="0.32"/>
<circle cx="1602.9" cy="728.9" r="0.4" fill="#fffaf0" opacity="0.6"/>
<circle cx="1867.1" cy="849.2" r="1.3" fill="#f5e6c8" opacity="0.82"/>
<circle cx="572.2" cy="182.2" r="0.9" fill="#f5e6c8" opacity="0.72"/>
<circle cx="862.0" cy="434.4" r="0.6" fill="#f5e6c8" opacity="0.59"/>
<circle cx="1519.4" cy="1205.4" r="0.4" fill="#a3b8d1" opacity="0.4"/>
<circle cx="2197.7" cy="1406.0" r="0.4" fill="#fffaf0" opacity="0.29"/>
<circle cx="1020.5" cy="997.4" r="0.4" fill="#fffaf0" opacity="0.57"/>
<circle cx="207.5" cy="1082.0" r="0.6" fill="#fffaf0" opacity="0.63"/>
<circle cx="1148.5" cy="337.0" r="0.4" fill="#d4a373" opacity="0.7"/>
<circle cx="178.4" cy="191.7" r="0.6" fill="#f5e6c8" opacity="0.62"/>
<circle cx="511.6" cy="679.0" r="0.4" fill="#fffaf0" opacity="0.74"/>
<circle cx="1568.8" cy="1582.7" r="0.4" fill="#f5e6c8" opacity="0.58"/>
<circle cx="2210.0" cy="684.2" r="0.4" fill="#d4a373" opacity="0.31"/>
<circle cx="188.4" cy="132.8" r="0.6" fill="#f5e6c8" opacity="0.54"/>
<circle cx="717.3" cy="1240.8" r="0.4" fill="#f5e6c8" opacity="0.38"/>
<circle cx="196.1" cy="486.1" r="0.6" fill="#fffaf0" opacity="0.67"/>
<circle cx="343.0" cy="572.5" r="0.6" fill="#fffaf0" opacity="0.47"/>
<circle cx="1702.3" cy="910.8" r="0.9" fill="#d4a373" opacity="0.81"/>
<circle cx="1051.2" cy="1284.9" r="0.4" fill="#fffaf0" opacity="0.44"/>
<circle cx="2243.2" cy="1431.6" r="0.4" fill="#fffaf0" opacity="0.47"/>
<circle cx="871.9" cy="633.0" r="0.4" fill="#f5e6c8" opacity="0.37"/>
<circle cx="1913.0" cy="864.9" r="0.9" fill="#fffaf0" opacity="0.59"/>
<circle cx="1821.5" cy="1409.4" r="0.4" fill="#fffaf0" opacity="0.26"/>
<circle cx="1306.0" cy="907.9" r="1.3" fill="#d4a373" opacity="0.64"/>
<circle cx="153.7" cy="874.9" r="0.6" fill="#fffaf0" opacity="0.3"/>
<circle cx="1768.9" cy="1438.5" r="0.4" fill="#fffaf0" opacity="0.63"/>
<circle cx="1789.9" cy="1038.4" r="0.4" fill="#f5e6c8" opacity="0.38"/>
<circle cx="1251.7" cy="1223.5" r="0.4" fill="#a3b8d1" opacity="0.45"/>
<circle cx="1613.7" cy="789.9" r="0.4" fill="#f5e6c8" opacity="0.68"/>
<circle cx="2195.9" cy="657.0" r="0.6" fill="#d4a373" opacity="0.65"/>
<circle cx="1934.2" cy="1334.1" r="0.9" fill="#f5e6c8" opacity="0.82"/>
<circle cx="1257.3" cy="1136.1" r="0.6" fill="#fffaf0" opacity="0.5"/>
<circle cx="350.9" cy="1186.0" r="1.3" fill="#fffaf0" opacity="0.48"/>
<circle cx="490.5" cy="679.9" r="0.4" fill="#fffaf0" opacity="0.83"/>
<circle cx="740.3" cy="183.7" r="0.6" fill="#fffaf0" opacity="0.72"/>
<circle cx="149.6" cy="734.0" r="0.6" fill="#fffaf0" opacity="0.8"/>
<circle cx="260.8" cy="295.3" r="0.4" fill="#f5e6c8" opacity="0.39"/>
<circle cx="1427.5" cy="358.3" r="0.4" fill="#fffaf0" opacity="0.42"/>
<circle cx="1818.0" cy="498.8" r="0.4" fill="#fffaf0" opacity="0.74"/>
<circle cx="625.1" cy="1419.9" r="0.9" fill="#fffaf0" opacity="0.46"/>
<circle cx="2296.8" cy="772.2" r="0.4" fill="#a3b8d1" opacity="0.28"/>
<circle cx="1923.4" cy="616.0" r="0.4" fill="#fffaf0" opacity="0.56"/>
<circle cx="2376.6" cy="1052.1" r="0.4" fill="#fffaf0" opacity="0.26"/>
<circle cx="891.7" cy="1274.8" r="0.6" fill="#fffaf0" opacity="0.61"/>
<circle cx="376.6" cy="514.9" r="0.4" fill="#fffaf0" opacity="0.77"/>
<circle cx="1528.7" cy="1589.0" r="0.4" fill="#fffaf0" opacity="0.57"/>
<circle cx="1848.9" cy="2.2" r="0.6" fill="#d4a373" opacity="0.76"/>
<circle cx="197.8" cy="431.9" r="0.6" fill="#fffaf0" opacity="0.31"/>
<circle cx="1124.8" cy="1528.8" r="0.6" fill="#fffaf0" opacity="0.76"/>
<circle cx="1894.4" cy="667.2" r="0.9" fill="#d4a373" opacity="0.3"/>
<circle cx="500.2" cy="869.4" r="0.4" fill="#d4a373" opacity="0.34"/>
<circle cx="747.4" cy="497.2" r="0.4" fill="#fffaf0" opacity="0.43"/>
<circle cx="1716.3" cy="575.5" r="0.6" fill="#fffaf0" opacity="0.31"/>
<circle cx="1108.2" cy="1547.1" r="0.6" fill="#fffaf0" opacity="0.64"/>
<circle cx="905.1" cy="1136.0" r="0.4" fill="#fffaf0" opacity="0.59"/>
<circle cx="25.1" cy="1586.6" r="0.6" fill="#f5e6c8" opacity="0.37"/>
<circle cx="696.9" cy="601.6" r="0.4" fill="#fffaf0" opacity="0.43"/>
<circle cx="941.3" cy="1066.7" r="0.4" fill="#f5e6c8" opacity="0.37"/>
<circle cx="790.6" cy="1512.1" r="0.6" fill="#fffaf0" opacity="0.68"/>
<circle cx="1984.5" cy="147.6" r="0.4" fill="#f5e6c8" opacity="0.31"/>
<circle cx="1699.9" cy="287.8" r="0.4" fill="#f5e6c8" opacity="0.75"/>
<circle cx="216.2" cy="362.5" r="0.4" fill="#fffaf0" opacity="0.32"/>
<circle cx="174.4" cy="1473.0" r="0.4" fill="#f5e6c8" opacity="0.56"/>
<circle cx="1840.5" cy="1313.8" r="0.4" fill="#fffaf0" opacity="0.45"/>
<circle cx="37.0" cy="641.1" r="0.6" fill="#f5e6c8" opacity="0.84"/>
<circle cx="1584.6" cy="973.8" r="0.4" fill="#fffaf0" opacity="0.45"/>
<circle cx="1561.7" cy="170.0" r="0.4" fill="#f5e6c8" opacity="0.56"/>
<circle cx="1980.5" cy="978.3" r="0.4" fill="#d4a373" opacity="0.71"/>
<circle cx="1315.8" cy="564.1" r="0.4" fill="#f5e6c8" opacity="0.34"/>
<circle cx="2368.3" cy="825.7" r="0.6" fill="#fffaf0" opacity="0.75"/>
<circle cx="2267.7" cy="1003.4" r="0.4" fill="#fffaf0" opacity="0.3"/>
<circle cx="1383.6" cy="1115.4" r="0.4" fill="#fffaf0" opacity="0.81"/>
<circle cx="1111.3" cy="198.4" r="1.3" fill="#d4a373" opacity="0.33"/>
<circle cx="1304.2" cy="897.2" r="0.6" fill="#d4a373" opacity="0.41"/>
<circle cx="2381.1" cy="1308.0" r="0.6" fill="#d4a373" opacity="0.32"/>
<circle cx="692.6" cy="1435.2" r="0.4" fill="#d4a373" opacity="0.59"/>
<circle cx="445.4" cy="876.6" r="0.4" fill="#fffaf0" opacity="0.27"/>
<circle cx="2368.8" cy="1503.1" r="0.6" fill="#f5e6c8" opacity="0.43"/>
<circle cx="1770.4" cy="610.6" r="0.6" fill="#fffaf0" opacity="0.73"/>
<circle cx="478.9" cy="748.8" r="0.4" fill="#f5e6c8" opacity="0.48"/>
<circle cx="416.9" cy="831.6" r="0.4" fill="#fffaf0" opacity="0.59"/>
<circle cx="1540.1" cy="60.6" r="0.6" fill="#a3b8d1" opacity="0.34"/>
<circle cx="1440.2" cy="751.9" r="0.4" fill="#f5e6c8" opacity="0.62"/>
<circle cx="1819.3" cy="1202.7" r="0.4" fill="#d4a373" opacity="0.85"/>
<circle cx="2052.1" cy="654.4" r="0.4" fill="#d4a373" opacity="0.59"/>
<circle cx="1262.3" cy="840.0" r="0.4" fill="#fffaf0" opacity="0.79"/>
<circle cx="131.2" cy="1160.9" r="0.9" fill="#f5e6c8" opacity="0.69"/>
<circle cx="1804.5" cy="487.6" r="0.6" fill="#fffaf0" opacity="0.29"/>
<circle cx="1072.7" cy="804.2" r="0.4" fill="#f5e6c8" opacity="0.28"/>
<circle cx="1262.9" cy="382.6" r="0.4" fill="#fffaf0" opacity="0.49"/>
<circle cx="164.3" cy="1458.1" r="1.3" fill="#d4a373" opacity="0.65"/>
<circle cx="1011.4" cy="1288.4" r="0.4" fill="#f5e6c8" opacity="0.7"/>
<circle cx="2168.2" cy="157.7" r="0.6" fill="#fffaf0" opacity="0.32"/>
<circle cx="2282.3" cy="0.9" r="0.4" fill="#fffaf0" opacity="0.43"/>
<circle cx="150.3" cy="1432.2" r="0.6" fill="#fffaf0" opacity="0.49"/>
<circle cx="1405.2" cy="73.4" r="0.4" fill="#fffaf0" opacity="0.79"/>
<circle cx="1196.2" cy="1494.3" r="1.3" fill="#fffaf0" opacity="0.53"/>
<circle cx="708.8" cy="1476.2" r="0.9" fill="#d4a373" opacity="0.37"/>
<circle cx="850.0" cy="756.0" r="0.4" fill="#a3b8d1" opacity="0.78"/>
<circle cx="484.8" cy="1011.8" r="0.4" fill="#fffaf0" opacity="0.78"/>
<circle cx="254.6" cy="1161.2" r="0.4" fill="#d4a373" opacity="0.79"/>
<circle cx="1711.5" cy="215.8" r="0.6" fill="#fffaf0" opacity="0.81"/>
<circle cx="189.6" cy="357.2" r="0.4" fill="#fffaf0" opacity="0.68"/>
<circle cx="434.4" cy="376.7" r="0.6" fill="#fffaf0" opacity="0.72"/>
<circle cx="1588.8" cy="1415.1" r="0.6" fill="#fffaf0" opacity="0.39"/>
<circle cx="2224.2" cy="1067.3" r="0.4" fill="#fffaf0" opacity="0.63"/>
<circle cx="2359.3" cy="704.5" r="0.4" fill="#fffaf0" opacity="0.57"/>
<circle cx="1439.3" cy="455.3" r="0.4" fill="#fffaf0" opacity="0.73"/>
<circle cx="684.4" cy="1209.1" r="0.4" fill="#fffaf0" opacity="0.42"/>
<circle cx="447.3" cy="1435.3" r="1.3" fill="#fffaf0" opacity="0.27"/>
<circle cx="1801.4" cy="615.5" r="0.9" fill="#fffaf0" opacity="0.55"/>
<circle cx="1334.4" cy="1031.9" r="0.4" fill="#f5e6c8" opacity="0.64"/>
<circle cx="1240.2" cy="809.0" r="0.9" fill="#fffaf0" opacity="0.66"/>
<circle cx="2283.7" cy="278.3" r="0.6" fill="#f5e6c8" opacity="0.35"/>
<circle cx="564.8" cy="704.7" r="0.6" fill="#f5e6c8" opacity="0.72"/>
<circle cx="566.3" cy="782.6" r="0.4" fill="#fffaf0" opacity="0.6"/>
<circle cx="84.8" cy="954.9" r="0.6" fill="#d4a373" opacity="0.59"/>
<circle cx="432.1" cy="242.9" r="0.4" fill="#fffaf0" opacity="0.55"/>
<circle cx="1060.0" cy="420.7" r="0.6" fill="#d4a373" opacity="0.29"/>
<circle cx="1365.4" cy="869.2" r="0.6" fill="#fffaf0" opacity="0.39"/>
<circle cx="746.4" cy="67.7" r="0.4" fill="#fffaf0" opacity="0.62"/>
<circle cx="635.3" cy="941.9" r="0.4" fill="#fffaf0" opacity="0.74"/>
<circle cx="611.6" cy="255.7" r="0.6" fill="#f5e6c8" opacity="0.75"/>
<circle cx="146.7" cy="657.0" r="0.4" fill="#a3b8d1" opacity="0.38"/>
<circle cx="101.1" cy="783.3" r="0.6" fill="#fffaf0" opacity="0.84"/>
<circle cx="1092.8" cy="1191.9" r="0.4" fill="#d4a373" opacity="0.39"/>
<circle cx="339.7" cy="628.7" r="0.4" fill="#fffaf0" opacity="0.5"/>
<circle cx="82.2" cy="1593.8" r="0.6" fill="#fffaf0" opacity="0.69"/>
<circle cx="607.7" cy="883.0" r="0.4" fill="#a3b8d1" opacity="0.53"/>
<circle cx="873.6" cy="539.3" r="1.3" fill="#fffaf0" opacity="0.62"/>
<circle cx="967.3" cy="1039.7" r="0.4" fill="#f5e6c8" opacity="0.46"/>
<circle cx="2074.6" cy="945.1" r="0.9" fill="#fffaf0" opacity="0.53"/>
<circle cx="2023.3" cy="609.8" r="0.6" fill="#fffaf0" opacity="0.38"/>
<circle cx="440.7" cy="879.3" r="0.4" fill="#fffaf0" opacity="0.37"/>
<circle cx="1122.5" cy="493.7" r="0.4" fill="#f5e6c8" opacity="0.85"/>
<circle cx="2070.5" cy="327.3" r="0.4" fill="#f5e6c8" opacity="0.29"/>
<circle cx="870.8" cy="439.2" r="0.4" fill="#fffaf0" opacity="0.36"/>
<circle cx="943.1" cy="1477.7" r="0.6" fill="#fffaf0" opacity="0.41"/>
<circle cx="368.4" cy="1498.6" r="0.4" fill="#f5e6c8" opacity="0.71"/>
<circle cx="2177.0" cy="32.6" r="0.4" fill="#fffaf0" opacity="0.48"/>
<circle cx="2117.7" cy="520.4" r="0.6" fill="#fffaf0" opacity="0.56"/>
<circle cx="945.5" cy="381.3" r="0.4" fill="#f5e6c8" opacity="0.34"/>
<circle cx="76.3" cy="499.6" r="0.4" fill="#fffaf0" opacity="0.58"/>
<circle cx="1695.9" cy="416.6" r="0.6" fill="#fffaf0" opacity="0.65"/>
<circle cx="491.5" cy="448.5" r="0.6" fill="#fffaf0" opacity="0.49"/>
<circle cx="2078.3" cy="361.7" r="0.4" fill="#fffaf0" opacity="0.46"/>
<circle cx="97.7" cy="39.2" r="0.6" fill="#d4a373" opacity="0.59"/>
<circle cx="2341.4" cy="476.9" r="0.6" fill="#fffaf0" opacity="0.8"/>
<circle cx="1654.1" cy="1066.6" r="0.9" fill="#fffaf0" opacity="0.77"/>
<circle cx="1518.0" cy="143.8" r="0.4" fill="#fffaf0" opacity="0.49"/>
<circle cx="920.1" cy="525.1" r="0.4" fill="#fffaf0" opacity="0.42"/>
<circle cx="965.9" cy="760.4" r="0.4" fill="#fffaf0" opacity="0.65"/>
<circle cx="223.3" cy="546.9" r="0.4" fill="#f5e6c8" opacity="0.34"/>
<circle cx="1683.3" cy="885.1" r="0.6" fill="#fffaf0" opacity="0.26"/>
<circle cx="874.3" cy="100.7" r="0.4" fill="#fffaf0" opacity="0.28"/>
<circle cx="1406.1" cy="750.3" r="0.4" fill="#fffaf0" opacity="0.4"/>
<circle cx="833.0" cy="1426.8" r="0.6" fill="#f5e6c8" opacity="0.41"/>
<circle cx="446.4" cy="750.8" r="0.6" fill="#fffaf0" opacity="0.82"/>
<circle cx="1382.8" cy="1507.8" r="0.6" fill="#f5e6c8" opacity="0.63"/>
<circle cx="986.3" cy="664.9" r="0.4" fill="#d4a373" opacity="0.75"/>
<circle cx="916.5" cy="1455.4" r="0.4" fill="#fffaf0" opacity="0.33"/>
<circle cx="740.7" cy="576.6" r="1.3" fill="#fffaf0" opacity="0.34"/>
<circle cx="548.4" cy="1088.3" r="0.4" fill="#fffaf0" opacity="0.25"/>
<circle cx="945.4" cy="382.9" r="0.4" fill="#fffaf0" opacity="0.64"/>
<circle cx="1498.5" cy="897.2" r="0.9" fill="#fffaf0" opacity="0.83"/>
<circle cx="832.0" cy="1418.1" r="0.4" fill="#f5e6c8" opacity="0.68"/>
<circle cx="1647.7" cy="1542.3" r="0.6" fill="#f5e6c8" opacity="0.35"/>
<circle cx="1177.6" cy="902.1" r="0.4" fill="#f5e6c8" opacity="0.42"/>
<circle cx="1281.6" cy="379.2" r="0.4" fill="#fffaf0" opacity="0.44"/>
<circle cx="1233.0" cy="201.6" r="0.4" fill="#fffaf0" opacity="0.29"/>
<circle cx="1691.5" cy="180.4" r="0.4" fill="#fffaf0" opacity="0.71"/>
<circle cx="390.2" cy="1386.1" r="0.9" fill="#fffaf0" opacity="0.28"/>
<circle cx="1217.9" cy="1274.3" r="0.4" fill="#fffaf0" opacity="0.68"/>
<circle cx="1717.7" cy="523.0" r="0.4" fill="#d4a373" opacity="0.71"/>
<circle cx="1988.5" cy="907.9" r="0.4" fill="#f5e6c8" opacity="0.67"/>
<circle cx="1994.4" cy="1282.0" r="0.4" fill="#f5e6c8" opacity="0.48"/>
<circle cx="554.5" cy="295.4" r="0.4" fill="#a3b8d1" opacity="0.6"/>
<circle cx="2329.0" cy="214.0" r="0.6" fill="#f5e6c8" opacity="0.5"/>
<circle cx="952.1" cy="1493.4" r="1.3" fill="#f5e6c8" opacity="0.28"/>
<circle cx="284.1" cy="67.8" r="0.4" fill="#a3b8d1" opacity="0.69"/>
<circle cx="288.3" cy="528.1" r="0.4" fill="#fffaf0" opacity="0.58"/>
<circle cx="896.2" cy="494.7" r="0.6" fill="#fffaf0" opacity="0.75"/>
<circle cx="940.0" cy="988.4" r="0.6" fill="#fffaf0" opacity="0.84"/>
<circle cx="1665.7" cy="873.5" r="0.6" fill="#fffaf0" opacity="0.34"/>
<circle cx="257.1" cy="1493.7" r="0.4" fill="#fffaf0" opacity="0.54"/>
<circle cx="776.8" cy="30.8" r="0.6" fill="#f5e6c8" opacity="0.34"/>
<circle cx="657.6" cy="364.1" r="0.4" fill="#fffaf0" opacity="0.47"/>
<circle cx="123.0" cy="103.0" r="0.9" fill="#fffaf0" opacity="0.44"/>
<circle cx="438.0" cy="773.5" r="1.3" fill="#d4a373" opacity="0.37"/>
<circle cx="1162.2" cy="663.3" r="0.6" fill="#fffaf0" opacity="0.49"/>
<circle cx="1321.3" cy="1051.0" r="0.6" fill="#a3b8d1" opacity="0.42"/>
<circle cx="2075.0" cy="1590.9" r="0.4" fill="#f5e6c8" opacity="0.75"/>
<circle cx="422.0" cy="42.8" r="0.4" fill="#fffaf0" opacity="0.32"/>
<circle cx="861.4" cy="1205.7" r="0.4" fill="#fffaf0" opacity="0.56"/>
<circle cx="504.3" cy="1534.8" r="0.4" fill="#d4a373" opacity="0.57"/>
<circle cx="1901.5" cy="1176.6" r="0.4" fill="#d4a373" opacity="0.73"/>
<circle cx="1842.5" cy="1577.5" r="0.4" fill="#fffaf0" opacity="0.82"/>
<circle cx="1692.6" cy="400.8" r="0.9" fill="#f5e6c8" opacity="0.26"/>
<circle cx="545.4" cy="621.4" r="0.4" fill="#d4a373" opacity="0.64"/>
<circle cx="875.2" cy="1020.8" r="0.4" fill="#d4a373" opacity="0.42"/>
<circle cx="771.9" cy="150.6" r="0.4" fill="#fffaf0" opacity="0.69"/>
<circle cx="1783.7" cy="874.0" r="0.6" fill="#fffaf0" opacity="0.36"/>
<circle cx="343.1" cy="560.5" r="0.4" fill="#fffaf0" opacity="0.26"/>
<circle cx="968.0" cy="514.4" r="0.4" fill="#fffaf0" opacity="0.82"/>
<circle cx="2113.2" cy="513.4" r="0.6" fill="#a3b8d1" opacity="0.32"/>
<circle cx="1032.3" cy="1540.3" r="0.4" fill="#f5e6c8" opacity="0.49"/>
<circle cx="426.7" cy="437.4" r="0.6" fill="#fffaf0" opacity="0.82"/>
<circle cx="440.3" cy="571.5" r="1.3" fill="#f5e6c8" opacity="0.34"/>
<circle cx="907.5" cy="1030.2" r="0.4" fill="#d4a373" opacity="0.62"/>
<circle cx="2055.3" cy="1005.8" r="0.4" fill="#fffaf0" opacity="0.59"/>
<circle cx="2010.0" cy="1103.7" r="0.4" fill="#fffaf0" opacity="0.65"/>
<circle cx="923.1" cy="368.0" r="0.6" fill="#fffaf0" opacity="0.59"/>
<circle cx="77.3" cy="1003.7" r="0.4" fill="#f5e6c8" opacity="0.61"/>
<circle cx="2235.9" cy="243.1" r="0.4" fill="#f5e6c8" opacity="0.85"/>
<circle cx="751.1" cy="1178.8" r="1.3" fill="#d4a373" opacity="0.49"/>
<circle cx="304.1" cy="1584.1" r="0.4" fill="#d4a373" opacity="0.39"/>
<circle cx="1558.1" cy="1500.3" r="0.6" fill="#fffaf0" opacity="0.73"/>
<circle cx="2384.8" cy="103.7" r="0.9" fill="#fffaf0" opacity="0.68"/>
<circle cx="1937.2" cy="726.5" r="0.4" fill="#fffaf0" opacity="0.77"/>
<circle cx="671.1" cy="1029.9" r="0.4" fill="#f5e6c8" opacity="0.58"/>
<circle cx="1177.8" cy="386.9" r="0.6" fill="#f5e6c8" opacity="0.76"/>
<circle cx="1318.3" cy="1449.1" r="0.6" fill="#fffaf0" opacity="0.34"/>
<circle cx="240.8" cy="58.9" r="0.4" fill="#d4a373" opacity="0.77"/>
<circle cx="281.8" cy="290.7" r="0.4" fill="#f5e6c8" opacity="0.76"/>
<circle cx="2164.3" cy="115.0" r="1.3" fill="#f5e6c8" opacity="0.37"/>
<circle cx="2103.8" cy="1164.2" r="0.4" fill="#fffaf0" opacity="0.65"/>
<circle cx="36.9" cy="543.3" r="0.4" fill="#fffaf0" opacity="0.63"/>
<circle cx="1447.4" cy="1111.8" r="0.4" fill="#f5e6c8" opacity="0.33"/>
<circle cx="1119.5" cy="206.6" r="0.4" fill="#f5e6c8" opacity="0.81"/>
<circle cx="858.1" cy="313.9" r="1.3" fill="#f5e6c8" opacity="0.66"/>
<circle cx="864.8" cy="496.4" r="0.4" fill="#f5e6c8" opacity="0.34"/>
<circle cx="1019.3" cy="1312.2" r="0.4" fill="#fffaf0" opacity="0.52"/>
<circle cx="2260.0" cy="554.2" r="0.6" fill="#f5e6c8" opacity="0.39"/>
<circle cx="683.7" cy="1396.2" r="0.4" fill="#f5e6c8" opacity="0.76"/>
<circle cx="1091.8" cy="1493.9" r="0.4" fill="#f5e6c8" opacity="0.7"/>
<circle cx="1076.2" cy="102.7" r="0.4" fill="#fffaf0" opacity="0.42"/>
<circle cx="2290.8" cy="468.7" r="0.6" fill="#fffaf0" opacity="0.65"/>
<circle cx="987.7" cy="211.5" r="0.9" fill="#fffaf0" opacity="0.4"/>
<circle cx="819.8" cy="1312.8" r="0.9" fill="#fffaf0" opacity="0.6"/>
<circle cx="238.6" cy="1434.4" r="0.4" fill="#fffaf0" opacity="0.47"/>
<circle cx="1735.4" cy="1070.7" r="0.4" fill="#a3b8d1" opacity="0.79"/>
<circle cx="55.8" cy="1012.8" r="0.4" fill="#fffaf0" opacity="0.47"/>
<circle cx="758.5" cy="1073.4" r="0.6" fill="#a3b8d1" opacity="0.83"/>
<circle cx="2382.2" cy="632.2" r="0.6" fill="#f5e6c8" opacity="0.64"/>
<circle cx="2394.3" cy="106.5" r="0.4" fill="#f5e6c8" opacity="0.49"/>
<circle cx="523.4" cy="1583.6" r="0.4" fill="#fffaf0" opacity="0.47"/>
<circle cx="947.1" cy="1186.9" r="0.4" fill="#f5e6c8" opacity="0.35"/>
<circle cx="1495.2" cy="1187.2" r="0.4" fill="#f5e6c8" opacity="0.74"/>
<circle cx="1862.4" cy="191.5" r="0.4" fill="#d4a373" opacity="0.26"/>
<circle cx="2266.9" cy="1433.3" r="0.4" fill="#fffaf0" opacity="0.46"/>
<circle cx="1280.8" cy="178.0" r="0.6" fill="#fffaf0" opacity="0.43"/>
<circle cx="299.0" cy="908.6" r="0.4" fill="#fffaf0" opacity="0.3"/>
<circle cx="705.5" cy="1244.0" r="0.4" fill="#fffaf0" opacity="0.5"/>
<circle cx="522.3" cy="722.7" r="0.6" fill="#d4a373" opacity="0.53"/>
<circle cx="250.4" cy="1360.2" r="0.4" fill="#fffaf0" opacity="0.83"/>
<circle cx="975.5" cy="979.5" r="0.9" fill="#fffaf0" opacity="0.83"/>
<circle cx="25.7" cy="246.0" r="0.6" fill="#f5e6c8" opacity="0.69"/>
<circle cx="375.7" cy="849.7" r="0.4" fill="#fffaf0" opacity="0.32"/>
<circle cx="2318.9" cy="1028.9" r="0.9" fill="#fffaf0" opacity="0.28"/>
<circle cx="188.0" cy="417.3" r="0.4" fill="#fffaf0" opacity="0.8"/>
<circle cx="1173.6" cy="1046.4" r="0.9" fill="#f5e6c8" opacity="0.82"/>
<circle cx="1202.3" cy="1446.2" r="0.4" fill="#f5e6c8" opacity="0.43"/>
<circle cx="619.9" cy="588.6" r="0.4" fill="#fffaf0" opacity="0.54"/>
<circle cx="1033.2" cy="721.3" r="0.4" fill="#fffaf0" opacity="0.75"/>
<circle cx="1266.9" cy="876.1" r="0.4" fill="#fffaf0" opacity="0.38"/>
<circle cx="892.6" cy="503.1" r="0.4" fill="#f5e6c8" opacity="0.39"/>
<circle cx="1169.8" cy="14.3" r="0.4" fill="#fffaf0" opacity="0.83"/>
<circle cx="1424.1" cy="1537.3" r="0.4" fill="#fffaf0" opacity="0.61"/>
<circle cx="722.8" cy="974.7" r="0.6" fill="#fffaf0" opacity="0.44"/>
<circle cx="1238.9" cy="1206.1" r="0.4" fill="#fffaf0" opacity="0.31"/>
<circle cx="648.3" cy="1273.0" r="0.4" fill="#fffaf0" opacity="0.77"/>
<circle cx="685.9" cy="1087.8" r="0.4" fill="#d4a373" opacity="0.84"/>
<circle cx="787.6" cy="507.8" r="0.6" fill="#f5e6c8" opacity="0.72"/>
<circle cx="136.2" cy="1221.7" r="0.4" fill="#f5e6c8" opacity="0.62"/>
<circle cx="2225.6" cy="1021.9" r="0.4" fill="#f5e6c8" opacity="0.81"/>
<circle cx="1391.6" cy="8.9" r="0.6" fill="#f5e6c8" opacity="0.5"/>
<circle cx="2360.9" cy="1466.8" r="0.4" fill="#fffaf0" opacity="0.72"/>
<circle cx="1803.7" cy="604.5" r="0.4" fill="#fffaf0" opacity="0.51"/>
<circle cx="767.8" cy="1175.5" r="0.4" fill="#d4a373" opacity="0.32"/>
<circle cx="1599.0" cy="877.0" r="0.4" fill="#fffaf0" opacity="0.32"/>
<circle cx="2289.3" cy="896.3" r="0.9" fill="#fffaf0" opacity="0.38"/>
<circle cx="1287.2" cy="1342.8" r="0.4" fill="#fffaf0" opacity="0.77"/>
<circle cx="75.3" cy="691.1" r="0.4" fill="#a3b8d1" opacity="0.65"/>
<circle cx="1184.7" cy="1103.3" r="0.4" fill="#fffaf0" opacity="0.72"/>
<circle cx="1781.6" cy="266.4" r="0.6" fill="#fffaf0" opacity="0.37"/>
<circle cx="393.3" cy="559.6" r="0.6" fill="#fffaf0" opacity="0.56"/>
<circle cx="1378.3" cy="1347.7" r="0.4" fill="#fffaf0" opacity="0.6"/>
<circle cx="2353.5" cy="524.8" r="0.6" fill="#fffaf0" opacity="0.39"/>
<circle cx="1753.0" cy="920.0" r="0.4" fill="#d4a373" opacity="0.29"/>
<circle cx="906.2" cy="1146.4" r="0.4" fill="#f5e6c8" opacity="0.62"/>
<circle cx="2341.8" cy="1455.4" r="0.4" fill="#fffaf0" opacity="0.54"/>
<circle cx="1807.5" cy="163.7" r="0.4" fill="#fffaf0" opacity="0.76"/>
<circle cx="1676.3" cy="908.9" r="0.6" fill="#fffaf0" opacity="0.45"/>
<circle cx="2282.0" cy="1223.6" r="0.6" fill="#f5e6c8" opacity="0.31"/>
<circle cx="524.4" cy="318.8" r="0.4" fill="#fffaf0" opacity="0.62"/>
<circle cx="1835.7" cy="931.9" r="0.9" fill="#f5e6c8" opacity="0.8"/>
<circle cx="873.6" cy="1521.6" r="0.6" fill="#d4a373" opacity="0.42"/>
<circle cx="1744.5" cy="423.6" r="0.4" fill="#fffaf0" opacity="0.26"/>
<circle cx="608.6" cy="468.9" r="0.4" fill="#fffaf0" opacity="0.33"/>
<circle cx="654.3" cy="456.1" r="0.4" fill="#d4a373" opacity="0.56"/>
<circle cx="384.3" cy="1375.4" r="0.9" fill="#fffaf0" opacity="0.62"/>
<circle cx="1761.4" cy="855.3" r="0.6" fill="#f5e6c8" opacity="0.8"/>
<circle cx="623.6" cy="86.9" r="0.9" fill="#f5e6c8" opacity="0.47"/>
<circle cx="560.2" cy="724.5" r="0.4" fill="#a3b8d1" opacity="0.69"/>
<circle cx="1213.5" cy="905.6" r="0.4" fill="#a3b8d1" opacity="0.39"/>
<circle cx="264.6" cy="1504.8" r="0.6" fill="#d4a373" opacity="0.29"/>
<circle cx="244.8" cy="904.7" r="0.4" fill="#fffaf0" opacity="0.84"/>
<circle cx="2093.1" cy="98.3" r="0.6" fill="#fffaf0" opacity="0.29"/>
<circle cx="1370.2" cy="1572.5" r="0.6" fill="#f5e6c8" opacity="0.76"/>
<circle cx="1250.8" cy="123.5" r="0.4" fill="#fffaf0" opacity="0.36"/>
<circle cx="850.2" cy="798.4" r="0.4" fill="#fffaf0" opacity="0.67"/>
<circle cx="1166.1" cy="125.9" r="0.4" fill="#a3b8d1" opacity="0.58"/>
<circle cx="1347.5" cy="215.8" r="0.4" fill="#f5e6c8" opacity="0.45"/>
<circle cx="2253.3" cy="1561.6" r="0.9" fill="#d4a373" opacity="0.81"/>
<circle cx="2243.9" cy="32.3" r="0.4" fill="#f5e6c8" opacity="0.6"/>
<circle cx="1470.6" cy="981.0" r="0.9" fill="#fffaf0" opacity="0.3"/>
<circle cx="2302.7" cy="51.0" r="0.4" fill="#a3b8d1" opacity="0.77"/>
<circle cx="57.8" cy="51.1" r="0.6" fill="#fffaf0" opacity="0.66"/>
<circle cx="1392.2" cy="1211.8" r="0.6" fill="#fffaf0" opacity="0.25"/>
<circle cx="1906.0" cy="1560.6" r="0.9" fill="#fffaf0" opacity="0.49"/>
<circle cx="832.2" cy="23.9" r="0.6" fill="#f5e6c8" opacity="0.41"/>
<circle cx="1262.7" cy="536.6" r="0.6" fill="#fffaf0" opacity="0.52"/>
<circle cx="2116.5" cy="281.1" r="0.4" fill="#fffaf0" opacity="0.4"/>
<circle cx="1880.8" cy="532.6" r="0.4" fill="#fffaf0" opacity="0.64"/>
<circle cx="1254.6" cy="407.9" r="0.9" fill="#fffaf0" opacity="0.36"/>
<circle cx="723.6" cy="527.3" r="0.6" fill="#f5e6c8" opacity="0.65"/>
<circle cx="1296.2" cy="125.7" r="0.6" fill="#fffaf0" opacity="0.4"/>
<circle cx="994.5" cy="1583.7" r="0.4" fill="#d4a373" opacity="0.46"/>
<circle cx="2377.1" cy="619.5" r="0.4" fill="#f5e6c8" opacity="0.72"/>
<circle cx="811.6" cy="1264.7" r="0.4" fill="#f5e6c8" opacity="0.42"/>
<circle cx="1779.6" cy="761.4" r="0.6" fill="#fffaf0" opacity="0.26"/>
<circle cx="913.0" cy="104.2" r="0.9" fill="#fffaf0" opacity="0.34"/>
<circle cx="2107.5" cy="1536.8" r="0.9" fill="#a3b8d1" opacity="0.46"/>
<circle cx="340.2" cy="1143.2" r="0.9" fill="#fffaf0" opacity="0.37"/>
<circle cx="1627.7" cy="1412.0" r="0.6" fill="#fffaf0" opacity="0.82"/>
<circle cx="893.6" cy="192.2" r="0.4" fill="#fffaf0" opacity="0.81"/>
<circle cx="443.6" cy="556.0" r="0.4" fill="#fffaf0" opacity="0.43"/>
<circle cx="294.7" cy="843.0" r="0.4" fill="#f5e6c8" opacity="0.59"/>
<circle cx="1264.2" cy="1515.4" r="0.4" fill="#fffaf0" opacity="0.38"/>
<circle cx="742.6" cy="1217.1" r="0.9" fill="#fffaf0" opacity="0.55"/>
<circle cx="793.0" cy="909.5" r="0.4" fill="#a3b8d1" opacity="0.73"/>
<circle cx="1103.4" cy="965.0" r="0.9" fill="#fffaf0" opacity="0.53"/>
<circle cx="2265.8" cy="1564.7" r="0.4" fill="#fffaf0" opacity="0.71"/>
<circle cx="124.5" cy="260.5" r="0.4" fill="#fffaf0" opacity="0.69"/>
<circle cx="47.1" cy="351.6" r="0.6" fill="#f5e6c8" opacity="0.55"/>
<circle cx="1116.2" cy="292.1" r="0.4" fill="#fffaf0" opacity="0.43"/>
<circle cx="625.4" cy="990.0" r="0.4" fill="#f5e6c8" opacity="0.53"/>
<circle cx="761.0" cy="570.5" r="0.9" fill="#fffaf0" opacity="0.6"/>
<circle cx="1296.3" cy="736.5" r="0.4" fill="#fffaf0" opacity="0.8"/>
<circle cx="2246.0" cy="1364.8" r="0.9" fill="#fffaf0" opacity="0.35"/>
<circle cx="2362.9" cy="461.8" r="0.4" fill="#fffaf0" opacity="0.68"/>
<circle cx="1400.7" cy="252.2" r="0.9" fill="#fffaf0" opacity="0.42"/>
<circle cx="1649.5" cy="555.4" r="0.6" fill="#a3b8d1" opacity="0.55"/>
<circle cx="1234.1" cy="606.3" r="0.4" fill="#fffaf0" opacity="0.55"/>
<circle cx="1378.1" cy="1011.0" r="0.4" fill="#fffaf0" opacity="0.3"/>
<circle cx="1156.3" cy="1026.1" r="1.3" fill="#fffaf0" opacity="0.42"/>
<circle cx="203.1" cy="1279.9" r="0.4" fill="#f5e6c8" opacity="0.75"/>
<circle cx="611.2" cy="1444.5" r="0.4" fill="#f5e6c8" opacity="0.51"/>
<circle cx="2270.1" cy="783.8" r="0.4" fill="#d4a373" opacity="0.42"/>
<circle cx="1207.3" cy="548.0" r="0.4" fill="#d4a373" opacity="0.38"/>
<circle cx="1928.4" cy="1565.9" r="0.9" fill="#f5e6c8" opacity="0.66"/>
<circle cx="1708.0" cy="1295.4" r="0.6" fill="#d4a373" opacity="0.36"/>
<circle cx="727.9" cy="390.5" r="0.9" fill="#fffaf0" opacity="0.26"/>
<circle cx="823.6" cy="1266.8" r="0.6" fill="#a3b8d1" opacity="0.8"/>
<circle cx="1546.3" cy="103.2" r="0.6" fill="#a3b8d1" opacity="0.32"/>
<circle cx="2091.2" cy="497.0" r="0.4" fill="#f5e6c8" opacity="0.67"/>
<circle cx="2364.1" cy="996.6" r="0.4" fill="#fffaf0" opacity="0.69"/>
<circle cx="2082.5" cy="1229.8" r="0.6" fill="#f5e6c8" opacity="0.77"/>
<circle cx="2264.2" cy="1022.6" r="0.4" fill="#fffaf0" opacity="0.48"/>
<circle cx="54.9" cy="257.6" r="0.6" fill="#f5e6c8" opacity="0.39"/>
<circle cx="1860.7" cy="1111.1" r="0.4" fill="#fffaf0" opacity="0.44"/>
<circle cx="449.6" cy="1036.5" r="0.6" fill="#fffaf0" opacity="0.82"/>
<circle cx="2225.1" cy="1458.4" r="0.4" fill="#f5e6c8" opacity="0.82"/>
<circle cx="2310.1" cy="1238.6" r="0.4" fill="#fffaf0" opacity="0.42"/>
<circle cx="1170.8" cy="56.6" r="0.9" fill="#fffaf0" opacity="0.57"/>
<circle cx="1787.0" cy="399.7" r="0.4" fill="#fffaf0" opacity="0.6"/>
<circle cx="786.0" cy="111.9" r="0.4" fill="#fffaf0" opacity="0.46"/>
<circle cx="2277.4" cy="1023.4" r="0.4" fill="#fffaf0" opacity="0.49"/>
<circle cx="1137.4" cy="1534.5" r="0.4" fill="#f5e6c8" opacity="0.51"/>
<circle cx="1829.8" cy="888.1" r="0.6" fill="#d4a373" opacity="0.81"/>
<circle cx="602.8" cy="865.9" r="1.3" fill="#fffaf0" opacity="0.57"/>
<circle cx="1838.6" cy="91.1" r="0.4" fill="#fffaf0" opacity="0.58"/>
<circle cx="1727.1" cy="1162.9" r="0.4" fill="#f5e6c8" opacity="0.71"/>
<circle cx="1694.3" cy="730.6" r="0.4" fill="#fffaf0" opacity="0.31"/>
<circle cx="2291.2" cy="1421.5" r="0.4" fill="#fffaf0" opacity="0.29"/>
<circle cx="1666.7" cy="700.2" r="0.4" fill="#f5e6c8" opacity="0.51"/>
<circle cx="1786.2" cy="644.8" r="0.6" fill="#f5e6c8" opacity="0.66"/>
<circle cx="111.4" cy="1136.8" r="0.4" fill="#fffaf0" opacity="0.28"/>
<circle cx="40.4" cy="116.6" r="0.4" fill="#fffaf0" opacity="0.53"/>
<circle cx="2288.9" cy="1363.4" r="0.4" fill="#fffaf0" opacity="0.6"/>
<circle cx="2360.8" cy="191.9" r="0.4" fill="#d4a373" opacity="0.38"/>
<circle cx="1221.2" cy="656.7" r="0.4" fill="#fffaf0" opacity="0.78"/>
<circle cx="1899.1" cy="1132.9" r="0.4" fill="#fffaf0" opacity="0.47"/>
<circle cx="1087.3" cy="504.9" r="0.6" fill="#fffaf0" opacity="0.5"/>
<circle cx="1854.6" cy="728.2" r="0.4" fill="#fffaf0" opacity="0.78"/>
<circle cx="902.4" cy="1436.8" r="1.3" fill="#fffaf0" opacity="0.72"/>
<circle cx="1610.8" cy="1185.5" r="0.4" fill="#a3b8d1" opacity="0.68"/>
<circle cx="1573.8" cy="1070.1" r="0.4" fill="#fffaf0" opacity="0.64"/>
<circle cx="1848.9" cy="862.6" r="1.3" fill="#f5e6c8" opacity="0.46"/>
<circle cx="40.2" cy="665.8" r="0.6" fill="#f5e6c8" opacity="0.41"/>
<circle cx="530.2" cy="637.4" r="1.3" fill="#d4a373" opacity="0.37"/>
<circle cx="143.5" cy="932.8" r="0.6" fill="#fffaf0" opacity="0.75"/>
<circle cx="1416.8" cy="1139.4" r="0.6" fill="#f5e6c8" opacity="0.7"/>
<circle cx="603.8" cy="1128.3" r="0.6" fill="#a3b8d1" opacity="0.58"/>
<circle cx="327.6" cy="1249.0" r="0.4" fill="#a3b8d1" opacity="0.69"/>
<circle cx="658.7" cy="907.4" r="0.4" fill="#fffaf0" opacity="0.55"/>
<circle cx="1501.1" cy="1429.6" r="0.6" fill="#d4a373" opacity="0.42"/>
<circle cx="1008.0" cy="232.3" r="0.6" fill="#fffaf0" opacity="0.53"/>
<circle cx="2378.8" cy="911.1" r="0.9" fill="#f5e6c8" opacity="0.46"/>
<circle cx="180.8" cy="480.6" r="0.6" fill="#d4a373" opacity="0.66"/>
<circle cx="912.4" cy="437.8" r="0.4" fill="#fffaf0" opacity="0.57"/>
<circle cx="898.9" cy="1051.6" r="0.4" fill="#d4a373" opacity="0.44"/>
<circle cx="2240.5" cy="399.6" r="0.4" fill="#fffaf0" opacity="0.32"/>
<circle cx="1905.8" cy="1182.4" r="0.4" fill="#f5e6c8" opacity="0.54"/>
<circle cx="67.4" cy="1310.2" r="0.9" fill="#f5e6c8" opacity="0.38"/>
<circle cx="1678.3" cy="539.3" r="0.9" fill="#fffaf0" opacity="0.38"/>
<circle cx="752.9" cy="707.0" r="0.6" fill="#f5e6c8" opacity="0.59"/>
<circle cx="2368.8" cy="357.4" r="0.4" fill="#fffaf0" opacity="0.62"/>
<circle cx="2314.2" cy="546.0" r="0.4" fill="#d4a373" opacity="0.51"/>
<circle cx="2196.8" cy="1083.2" r="0.4" fill="#f5e6c8" opacity="0.46"/>
<circle cx="518.6" cy="1412.3" r="0.9" fill="#fffaf0" opacity="0.39"/>
<circle cx="549.0" cy="1149.7" r="0.4" fill="#fffaf0" opacity="0.67"/>
<circle cx="2018.7" cy="869.2" r="0.6" fill="#fffaf0" opacity="0.31"/>
<circle cx="847.4" cy="1575.5" r="0.6" fill="#fffaf0" opacity="0.77"/>
<circle cx="244.4" cy="33.5" r="0.6" fill="#fffaf0" opacity="0.36"/>
<circle cx="1600.9" cy="1112.8" r="0.4" fill="#fffaf0" opacity="0.53"/>
<circle cx="1347.2" cy="569.4" r="0.4" fill="#fffaf0" opacity="0.4"/>
<circle cx="626.3" cy="26.0" r="0.4" fill="#fffaf0" opacity="0.61"/>
<circle cx="271.1" cy="1353.6" r="0.4" fill="#fffaf0" opacity="0.56"/>
<circle cx="2129.0" cy="1206.5" r="0.6" fill="#f5e6c8" opacity="0.65"/>
<circle cx="1201.1" cy="661.1" r="0.4" fill="#fffaf0" opacity="0.55"/>
<circle cx="1269.4" cy="852.9" r="0.6" fill="#fffaf0" opacity="0.79"/>
<circle cx="53.3" cy="481.7" r="0.4" fill="#f5e6c8" opacity="0.73"/>
</svg>
